<svg width="159" height="141" viewBox="0 0 159 141" fill="none" xmlns="http://www.w3.org/2000/svg">
<path d="M126.361 0.888638C141.561 4.58864 152.561 21.4886 156.761 39.3886C160.861 57.2886 158.161 76.1886 148.961 89.4886C139.761 102.789 124.061 110.389 110.261 118.389C96.3613 126.389 84.2614 134.789 69.3614 138.589C54.4614 142.389 36.8614 141.689 26.5613 132.589C16.2613 123.389 13.3614 105.789 8.86135 89.2886C4.46135 72.7886 -1.53865 57.4886 0.361346 42.6886C2.36135 27.8886 12.2613 13.5886 25.5613 9.18863C38.8614 4.88863 55.4613 10.4886 73.5613 8.48864C91.6613 6.58864 111.161 -2.91136 126.361 0.888638Z" fill="#9AAAE3"/>
<g clip-path="url(#clip0_1_149)">
<path d="M36.726 75.1472C36.7131 74.9449 36.6628 74.7472 36.5779 74.5655C36.4931 74.3837 36.3753 74.2216 36.2313 74.0882L33.9177 71.9481C33.6459 71.6963 33.2956 71.5607 32.9349 71.5676C32.5742 71.5746 32.2289 71.7235 31.9659 71.9856C31.9305 72.0202 31.8972 72.057 31.8661 72.096L25.8255 79.4473L25.1644 80.2504L15.0579 92.5504C14.8052 92.8598 14.6781 93.2628 14.7046 93.6713C14.7311 94.0799 14.909 94.4606 15.1993 94.7303L17.5108 96.8704C17.8019 97.1392 18.1815 97.2747 18.5664 97.2469C18.9514 97.2192 19.3103 97.0307 19.5645 96.7225L25.1644 89.9073L30.2115 83.7628L36.3705 76.268C36.4964 76.1153 36.5926 75.9376 36.6536 75.7453C36.7146 75.5529 36.7392 75.3497 36.726 75.1472Z" fill="#6C63FF"/>
<path d="M73.3645 61.2807L71.9593 58.3861C71.7817 58.0228 71.4757 57.7491 71.1084 57.6246C70.741 57.5002 70.3422 57.5352 69.9991 57.722L58.552 63.9856L51.3556 67.9239L47.271 70.1588C47.1642 70.217 47.065 70.2897 46.9759 70.375C46.7777 70.558 46.631 70.7954 46.5518 71.0612C46.493 71.2543 46.471 71.458 46.487 71.6602C46.5031 71.8625 46.5569 72.0594 46.6453 72.2394L47.1941 73.3712L48.0505 75.134C48.1378 75.3144 48.2579 75.4748 48.4038 75.6058C48.5497 75.7368 48.7186 75.8359 48.9007 75.8974C49.0453 75.9454 49.196 75.9699 49.3476 75.9702C49.5785 75.9703 49.806 75.9113 50.0108 75.7981L54.8623 73.1439L61.2064 69.6712L72.7388 63.3612C73.081 63.1726 73.3389 62.8479 73.4562 62.458C73.5734 62.0681 73.5404 61.6449 73.3645 61.2807Z" fill="#6C63FF"/>
<path d="M61.2687 69.8102L61.2064 69.6712L58.7494 64.2989C58.5756 63.9338 58.2731 63.6563 57.9075 63.5267C57.7249 63.462 57.5318 63.4367 57.3398 63.4522C57.1478 63.4678 56.9606 63.5238 56.7892 63.6172L50.7943 67.4738L46.8033 70.0419C46.773 70.0581 46.745 70.0789 46.7202 70.1037C46.4915 70.3221 46.3688 70.8825 46.2692 71.3414C46.2337 71.5002 46.2047 71.6392 46.1756 71.7297C46.1652 71.7672 46.1527 71.8069 46.1444 71.8466C46.0612 72.2033 46.101 72.5797 46.2567 72.9079L46.7472 73.947L47.6327 75.818C47.7545 76.0746 47.9411 76.2902 48.1715 76.441C48.402 76.5917 48.6674 76.6716 48.9381 76.6718C49.1607 76.6715 49.38 76.6156 49.5784 76.5085L55.1616 74.1699L60.6201 71.8819C60.9645 71.698 61.2261 71.3766 61.3477 70.9883C61.4693 70.6 61.4409 70.1764 61.2687 69.8102Z" fill="#2F2E41"/>
<path d="M41.4658 61.5051C47.6099 61.5051 52.5906 56.2185 52.5906 49.6972C52.5906 43.1759 47.6099 37.8893 41.4658 37.8893C35.3217 37.8893 30.3409 43.1759 30.3409 49.6972C30.3409 56.2185 35.3217 61.5051 41.4658 61.5051Z" fill="#6C63FF"/>
<path d="M41.7875 96.8108C41.7768 96.5108 41.6834 96.2207 41.519 95.9764C41.3546 95.7322 41.1264 95.5444 40.8625 95.4363C40.6951 95.366 40.5167 95.3301 40.3366 95.3304H37.2685C36.8827 95.3308 36.5129 95.4937 36.2401 95.7832C35.9673 96.0727 35.8138 96.4653 35.8134 96.8748V124.456C35.8138 124.865 35.9673 125.258 36.2401 125.547C36.5128 125.837 36.8827 126 37.2685 126H40.3366C40.7224 126 41.0923 125.837 41.3651 125.547C41.6378 125.258 41.7913 124.865 41.7917 124.456V96.8748C41.7925 96.8533 41.7911 96.8319 41.7875 96.8108Z" fill="#6C63FF"/>
<path d="M55.7271 109.126C55.685 109.021 55.632 108.921 55.569 108.828L50.3391 101.062L46.03 94.6663H38.6799L39.1995 95.4363L40.1246 96.8108L42.991 101.065L49.1335 110.183L50.707 112.517C50.9313 112.85 51.2709 113.075 51.6513 113.143C52.0317 113.21 52.4218 113.115 52.7358 112.877L55.2323 110.982C55.5006 110.778 55.6957 110.483 55.7855 110.146C55.8754 109.809 55.8548 109.449 55.7271 109.126ZM40.6983 86.7501C40.4733 86.4173 40.1332 86.1927 39.7525 86.1257C39.3717 86.0587 38.9815 86.1547 38.6674 86.3927L36.171 88.2857C35.8574 88.5244 35.6458 88.8855 35.5827 89.2896C35.5196 89.6937 35.61 90.1078 35.8342 90.4412L36.7488 91.7981H44.0989L40.6983 86.7501Z" fill="#6C63FF"/>
<path d="M55.7748 109.201C55.7601 109.175 55.7441 109.15 55.7271 109.126C55.534 108.848 55.28 108.624 54.987 108.473L52.241 107.024C51.5218 106.644 50.7486 106.737 50.5179 107.231L49.1335 110.183L43.44 122.322C43.2072 122.816 43.6042 123.527 44.3214 123.906L47.0673 125.358C47.3399 125.506 47.6406 125.586 47.9466 125.592C48.3332 125.592 48.6553 125.44 48.7905 125.151L55.8684 110.06C55.9241 109.92 55.9448 109.768 55.9284 109.617C55.912 109.467 55.8591 109.324 55.7748 109.201Z" fill="#6C63FF"/>
<path d="M39.3305 71.5179L38.8691 71.0369L38.6134 70.7655L37.1459 69.2322C36.8991 68.9746 36.5743 68.8182 36.2291 68.7909C36.1897 68.7887 36.1522 68.7865 36.1127 68.7865C36.0254 68.7887 35.8924 68.7755 35.7365 68.7622C35.2439 68.7181 34.6286 68.6607 34.4145 68.8946L31.573 71.5024L25.5677 77.0115C25.3497 77.245 25.2084 77.5467 25.1644 77.872C25.1526 77.95 25.147 78.029 25.1478 78.1081C25.1481 78.1783 25.1536 78.2484 25.1644 78.3177C25.2086 78.6519 25.3554 78.9613 25.5822 79.198L25.8255 79.4473L29.7458 83.4362C30.0208 83.7228 30.3914 83.8823 30.7768 83.8797C30.9451 83.8796 31.1119 83.8474 31.2695 83.7848C31.4726 83.7052 31.6565 83.5786 31.8078 83.4142L38.6404 74.6089L39.0873 74.033L39.3451 73.7021C39.6157 73.4102 39.7661 73.0163 39.7634 72.6068C39.7607 72.1973 39.605 71.8057 39.3305 71.5179Z" fill="#2F2E41"/>
<path d="M39.9848 54.0736L39.9733 53.6323C40.7467 53.6095 41.4285 53.558 41.9409 53.1607C42.0861 53.0417 42.2055 52.8908 42.291 52.7184C42.3764 52.546 42.4258 52.3561 42.4359 52.1616C42.4449 52.0428 42.428 51.9233 42.3864 51.8126C42.3448 51.7018 42.2798 51.6027 42.1963 51.523C41.8561 51.2181 41.3089 51.3168 40.91 51.5109L40.566 51.6784L41.2256 46.5619L41.6375 46.6218L41.0764 50.974C41.6184 50.8049 42.1206 50.8777 42.4646 51.186C42.5967 51.3084 42.7003 51.4616 42.7674 51.6335C42.8345 51.8054 42.8632 51.9915 42.8513 52.1771C42.8392 52.4385 42.7734 52.6938 42.6584 52.9253C42.5435 53.1567 42.3823 53.3587 42.1861 53.5171C41.5278 54.0277 40.6723 54.0531 39.9848 54.0736Z" fill="#2F2E41"/>
<path d="M45.9135 46.9971H43.6744V47.4384H45.9135V46.9971Z" fill="#2F2E41"/>
<path d="M38.846 46.9971H36.607V47.4384H38.846V46.9971Z" fill="#2F2E41"/>
<path d="M40.4356 32.0077C39.202 26.7591 34.4201 22.7291 29.2963 22.8294C26.7596 22.9049 24.3134 23.8463 22.3207 25.514C21.3161 26.3439 20.4512 27.3483 19.7626 28.4847C18.9904 29.7639 18.5055 31.2079 18.1269 32.6654C17.362 35.6103 17.0015 38.9427 15.0603 41.3476C14.2554 42.3211 13.263 43.0999 12.1501 43.6313C11.0372 44.1627 9.82982 44.4343 8.60952 44.4278C7.38008 44.4075 6.17176 44.0853 5.07922 43.4866C3.98669 42.8878 3.0396 42.0286 2.31215 40.9765C0.850985 38.9088 0.131624 36.0492 0.97577 33.5538C1.39001 32.3292 2.28072 31.1725 3.55464 30.9683C4.13562 30.8849 4.72691 30.9835 5.25572 31.2522C5.78453 31.5209 6.22779 31.9478 6.53093 32.4804C7.10383 33.5474 6.92061 34.9711 6.20286 35.9122C5.44688 36.9034 4.18353 37.1779 3.06927 36.7797C2.54555 36.5907 2.08502 36.2439 1.74396 35.7817C1.49479 35.4477 1.05316 35.9159 1.29977 36.2465C1.69498 36.7495 2.20527 37.1365 2.78175 37.3703C3.35823 37.604 3.98161 37.6768 4.59218 37.5816C5.20146 37.4838 5.77374 37.2102 6.2466 36.7909C6.71946 36.3715 7.07475 35.8223 7.27373 35.2033C7.49186 34.5896 7.54908 33.9245 7.43931 33.279C7.32953 32.6335 7.05686 32.0316 6.65034 31.5376C6.22675 31.0487 5.69203 30.6834 5.09735 30.4766C4.50268 30.2698 3.86795 30.2285 3.25393 30.3565C1.93853 30.6521 0.983259 31.8004 0.487495 33.0728C-0.00100744 34.3947 -0.129888 35.8357 0.115536 37.2315C0.342018 38.5785 0.833236 39.8597 1.55721 40.9918C2.28118 42.1239 3.22168 43.0814 4.31747 43.8021C6.5351 45.2474 9.3031 45.4462 11.736 44.5179C12.9515 44.0615 14.0618 43.3358 14.9929 42.3892C15.9936 41.3117 16.7594 40.0144 17.2364 38.5888C18.3333 35.5405 18.494 32.1295 20.046 29.2642C21.3997 26.8313 23.535 24.9985 26.0597 24.1024C28.5697 23.182 31.317 23.322 33.7324 24.4934C36.134 25.6739 38.0685 27.7126 39.1979 30.2532C39.4669 30.8723 39.6796 31.5171 39.8332 32.179C39.9306 32.5931 40.5328 32.4213 40.4356 32.0077Z" fill="#2F2E41"/>
<path d="M52.4594 74.6111C52.3741 74.2625 52.2744 73.9205 52.1601 73.5852C51.468 71.5347 50.2542 69.7278 48.6533 68.3651C48.4725 68.2085 48.2854 68.0584 48.0921 67.915C47.1328 67.1969 46.0719 66.6453 44.9493 66.2811C45.0392 65.9405 45.0377 65.58 44.9449 65.2402C44.8193 64.8121 44.5668 64.4385 44.2249 64.1751C43.883 63.9116 43.4702 63.7725 43.0478 63.7782H40.3371C39.9137 63.7723 39.4998 63.9116 39.157 64.1754C38.8142 64.4393 38.5608 64.8135 38.4345 65.2425C38.342 65.5812 38.3405 65.9406 38.4301 66.2802C36.1547 67.0218 34.1633 68.5183 32.7483 70.5499C31.3334 72.5815 30.5695 75.0411 30.569 77.5675V100.441C30.569 102.002 31.1281 103.271 31.8162 103.271H51.5635C51.5718 103.271 57.1904 103.271 57.1987 103.266C57.8764 103.243 58.4231 101.983 58.4231 100.441C58.4231 95.1601 57.3239 87.7385 55.2041 82.9613L52.8107 77.5676C52.8111 76.5703 52.6931 75.577 52.4594 74.6111Z" fill="#2F2E41"/>
<path d="M30.2572 52.4158C28.8817 52.4158 27.7628 50.6343 27.7628 48.4445C27.7628 46.2547 28.8817 44.4732 30.2572 44.4732C31.6326 44.4732 32.7516 46.2547 32.7516 48.4445C32.7516 50.6343 31.6326 52.4158 30.2572 52.4158Z" fill="#3F3D56"/>
<path d="M52.4989 52.4158C51.1234 52.4158 50.0045 50.6343 50.0045 48.4445C50.0045 46.2547 51.1234 44.4732 52.4989 44.4732C53.8743 44.4732 54.9933 46.2547 54.9933 48.4445C54.9933 50.6343 53.8742 52.4158 52.4989 52.4158Z" fill="#3F3D56"/>
<path d="M53.1989 51.7947C53.1494 51.7946 53.1006 51.7821 53.0566 51.7581C53.0125 51.7341 52.9745 51.6993 52.9456 51.6566C52.9168 51.6139 52.8979 51.5646 52.8905 51.5126C52.8832 51.4607 52.8876 51.4076 52.9034 51.3578C53.4993 49.4769 53.6786 47.4755 53.4272 45.5091C53.1759 43.5427 52.5008 41.6643 51.4543 40.0199C50.4078 38.3755 49.0182 37.0093 47.3934 36.0276C45.7686 35.0459 43.9524 34.4751 42.0859 34.3595C40.2195 34.2439 38.3531 34.5867 36.6318 35.3612C34.9104 36.1357 33.3805 37.321 32.161 38.8251C30.9414 40.3292 30.0651 42.1115 29.6 44.0336C29.1349 45.9556 29.0937 47.9656 29.4795 49.9073C29.4963 49.9931 29.4804 50.0824 29.4353 50.1558C29.3901 50.2292 29.3194 50.2805 29.2386 50.2986C29.1578 50.3167 29.0735 50.3 29.0043 50.2523C28.9351 50.2045 28.8865 50.1296 28.8693 50.0439C28.4634 48.0024 28.5065 45.8891 28.9954 43.8682C29.4842 41.8473 30.4054 39.9733 31.6876 38.3918C32.9698 36.8103 34.5783 35.564 36.3881 34.7496C38.1979 33.9353 40.1603 33.5749 42.1227 33.6965C44.0851 33.818 45.9946 34.4183 47.7029 35.4506C49.4112 36.4829 50.8721 37.9194 51.9723 39.6485C53.0724 41.3775 53.782 43.3526 54.046 45.4201C54.3099 47.4876 54.1212 49.5919 53.4943 51.5694C53.4734 51.635 53.4337 51.6921 53.3807 51.7325C53.3277 51.7729 53.2641 51.7946 53.1989 51.7947Z" fill="#3F3D56"/>
<path d="M36.7087 40.5023C36.2682 41.1406 36.4853 42.0007 36.9495 42.5509C37.5534 43.267 38.5165 43.3121 39.3528 43.1792C40.2912 43.0301 41.2865 42.5635 42.2365 42.878C43.0462 43.146 43.6238 43.9255 44.4651 44.1213C45.2111 44.2949 46.1032 44.0651 46.3648 43.2211C46.4904 42.8155 45.8884 42.6417 45.7634 43.0451C45.5942 43.5911 44.8636 43.5802 44.4453 43.429C43.7745 43.1866 43.2576 42.597 42.5983 42.3154C41.821 41.9834 40.9777 42.1333 40.1864 42.3224C39.4405 42.5007 38.582 42.765 37.839 42.432C37.2892 42.1856 36.8517 41.4094 37.2472 40.8364C37.4846 40.4924 36.9437 40.1619 36.7087 40.5023Z" fill="#2F2E41"/>
<path d="M66.6297 125.996H21.7305C21.6754 125.996 21.6225 125.972 21.5835 125.931C21.5445 125.89 21.5226 125.833 21.5226 125.775C21.5226 125.716 21.5445 125.66 21.5835 125.619C21.6225 125.578 21.6754 125.554 21.7305 125.554H66.6297C66.6848 125.554 66.7377 125.578 66.7766 125.619C66.8156 125.66 66.8375 125.716 66.8375 125.775C66.8375 125.833 66.8156 125.89 66.7766 125.931C66.7377 125.972 66.6848 125.996 66.6297 125.996Z" fill="#3F3D56"/>
<path d="M146.619 58.2835H97.2856C97.2353 58.2839 97.1855 58.2737 97.1389 58.2535C97.0923 58.2333 97.05 58.2035 97.0143 58.1659C96.9786 58.1283 96.9503 58.0835 96.9309 58.0342C96.9116 57.9849 96.9017 57.9321 96.9017 57.8787C96.9017 57.8253 96.9116 57.7724 96.9309 57.7231C96.9503 57.6738 96.9786 57.6291 97.0143 57.5915C97.05 57.5538 97.0923 57.5241 97.1389 57.5039C97.1855 57.4837 97.2353 57.4735 97.2856 57.4738H146.619C146.669 57.4735 146.719 57.4837 146.765 57.5039C146.812 57.5241 146.854 57.5538 146.89 57.5915C146.926 57.6291 146.954 57.6738 146.973 57.7231C146.993 57.7724 147.003 57.8253 147.003 57.8787C147.003 57.9321 146.993 57.9849 146.973 58.0342C146.954 58.0835 146.926 58.1283 146.89 58.1659C146.854 58.2035 146.812 58.2333 146.765 58.2535C146.719 58.2737 146.669 58.2839 146.619 58.2835Z" fill="#E6E6E6"/>
<path d="M125.647 35.9443H106.463C105.391 35.9431 104.363 35.4905 103.605 34.686C102.847 33.8815 102.421 32.7908 102.42 31.6531V11.2912C102.421 10.1535 102.847 9.06277 103.605 8.2583C104.363 7.45383 105.391 7.00132 106.463 7.00005H125.647C126.719 7.00132 127.746 7.45383 128.504 8.2583C129.262 9.06277 129.689 10.1535 129.69 11.2912V31.6531C129.689 32.7908 129.262 33.8815 128.504 34.686C127.746 35.4905 126.719 35.9431 125.647 35.9443Z" fill="#6C63FF"/>
<path opacity="0.1" d="M137.441 45.3872H118.257C117.185 45.3859 116.158 44.9334 115.4 44.1289C114.642 43.3244 114.215 42.2337 114.214 41.096V20.7342C114.215 19.5964 114.642 18.5057 115.4 17.7012C116.158 16.8967 117.185 16.4442 118.257 16.4429H137.441C138.513 16.4442 139.541 16.8967 140.299 17.7012C141.057 18.5057 141.483 19.5964 141.484 20.7342V41.096C141.483 42.2337 141.057 43.3244 140.299 44.1289C139.541 44.9334 138.513 45.3859 137.441 45.3872Z" fill="black"/>
<path d="M104.362 69.9559C104.306 69.9559 104.254 69.9326 104.215 69.8912C104.176 69.8499 104.154 69.7937 104.154 69.7352V65.7639C104.154 65.7054 104.176 65.6493 104.215 65.6079C104.254 65.5665 104.306 65.5433 104.362 65.5433C104.417 65.5433 104.47 65.5665 104.509 65.6079C104.548 65.6493 104.569 65.7054 104.569 65.7639V69.7352C104.569 69.7937 104.548 69.8499 104.509 69.8912C104.47 69.9326 104.417 69.9558 104.362 69.9559Z" fill="#CCCCCC"/>
<path d="M121.303 69.9559C121.248 69.9559 121.195 69.9326 121.156 69.8912C121.117 69.8499 121.095 69.7937 121.095 69.7352V65.7639C121.095 65.7054 121.117 65.6493 121.156 65.6079C121.195 65.5665 121.248 65.5433 121.303 65.5433C121.358 65.5433 121.411 65.5665 121.45 65.6079C121.489 65.6493 121.511 65.7054 121.511 65.7639V69.7352C121.511 69.7937 121.489 69.8499 121.45 69.8912C121.411 69.9326 121.358 69.9558 121.303 69.9559Z" fill="#3F3D56"/>
<path d="M122.758 69.9559C122.703 69.9559 122.65 69.9326 122.611 69.8912C122.572 69.8499 122.55 69.7937 122.55 69.7352V65.7639C122.55 65.7054 122.572 65.6493 122.611 65.6079C122.65 65.5665 122.703 65.5433 122.758 65.5433C122.813 65.5433 122.866 65.5665 122.905 65.6079C122.944 65.6493 122.966 65.7054 122.966 65.7639V69.7352C122.966 69.7937 122.944 69.8499 122.905 69.8912C122.866 69.9326 122.813 69.9558 122.758 69.9559Z" fill="#3F3D56"/>
<path d="M107.413 70.0277C107.328 70.0275 107.245 70.0035 107.172 69.9582L104.7 68.1885C104.695 68.1854 104.69 68.1824 104.686 68.1793C104.617 68.1337 104.561 68.0702 104.523 67.995C104.484 67.9197 104.464 67.8352 104.465 67.7496C104.465 67.6596 104.487 67.5711 104.529 67.4932C104.572 67.4153 104.633 67.3508 104.707 67.3063L107.16 65.549C107.233 65.501 107.316 65.4746 107.402 65.4725C107.488 65.4704 107.573 65.4927 107.648 65.5371C107.723 65.5814 107.785 65.6463 107.829 65.7249C107.872 65.8035 107.895 65.893 107.895 65.9841V69.515C107.895 69.6508 107.844 69.7808 107.754 69.8769C107.663 69.9729 107.541 70.0272 107.413 70.0277ZM107.392 69.5843C107.401 69.5873 107.411 69.5881 107.42 69.5867C107.429 69.5853 107.438 69.5818 107.446 69.5762C107.456 69.5702 107.465 69.5613 107.471 69.5505C107.477 69.5397 107.48 69.5275 107.48 69.515V65.9841C107.48 65.9717 107.476 65.9595 107.471 65.9488C107.465 65.9381 107.456 65.9292 107.446 65.923C107.436 65.9168 107.425 65.9135 107.413 65.9135C107.401 65.9135 107.39 65.9167 107.38 65.9229L104.927 67.6803C104.886 67.7061 104.881 67.7344 104.881 67.7496C104.881 67.762 104.884 67.7742 104.89 67.785C104.896 67.7958 104.904 67.8046 104.914 67.8107L104.927 67.8188L107.392 69.5843Z" fill="#CCCCCC"/>
<path d="M139.283 69.9559C139.228 69.9559 139.175 69.9326 139.136 69.8912C139.097 69.8499 139.075 69.7937 139.075 69.7352V65.7639C139.075 65.7054 139.097 65.6493 139.136 65.6079C139.175 65.5665 139.228 65.5433 139.283 65.5433C139.338 65.5433 139.391 65.5665 139.43 65.6079C139.469 65.6493 139.491 65.7054 139.491 65.7639V69.7352C139.491 69.7937 139.469 69.8499 139.43 69.8912C139.391 69.9326 139.338 69.9558 139.283 69.9559Z" fill="#CCCCCC"/>
<path d="M136.228 70.0267C136.144 70.0266 136.063 70.003 135.991 69.9583C135.917 69.9138 135.856 69.8493 135.813 69.7714C135.771 69.6935 135.749 69.605 135.749 69.515V65.9841C135.749 65.8942 135.772 65.806 135.814 65.7282C135.856 65.6504 135.917 65.5857 135.991 65.5408C136.064 65.4959 136.147 65.4723 136.232 65.4723C136.316 65.4723 136.4 65.496 136.473 65.5409L138.95 67.3144C139.021 67.3593 139.079 67.4232 139.12 67.4995C139.16 67.5759 139.18 67.6621 139.179 67.7496C139.18 67.838 139.158 67.9251 139.117 68.0021C139.076 68.0791 139.017 68.1434 138.945 68.1884L136.485 69.9501C136.407 69.9994 136.318 70.0259 136.228 70.0267ZM136.165 69.515C136.165 69.5274 136.168 69.5396 136.174 69.5503C136.18 69.561 136.188 69.57 136.198 69.5762C136.208 69.5824 136.22 69.5856 136.232 69.5856C136.243 69.5857 136.255 69.5824 136.265 69.5762L138.727 67.8125C138.738 67.8062 138.747 67.7972 138.753 67.7862C138.76 67.7752 138.763 67.7627 138.763 67.7498V67.7496C138.764 67.7371 138.761 67.7249 138.755 67.7141C138.749 67.7034 138.741 67.6945 138.73 67.6885L136.253 65.9148C136.244 65.9117 136.234 65.9108 136.225 65.9122C136.215 65.9136 136.206 65.9172 136.198 65.9229C136.188 65.9289 136.18 65.9378 136.174 65.9486C136.168 65.9594 136.165 65.9716 136.165 65.9841L136.165 69.515Z" fill="#CCCCCC"/>
<path d="M111.013 60.5262C112.391 60.5262 113.508 59.3409 113.508 57.8787C113.508 56.4165 112.391 55.2311 111.013 55.2311C109.636 55.2311 108.519 56.4165 108.519 57.8787C108.519 59.3409 109.636 60.5262 111.013 60.5262Z" fill="#3F3D56"/>
</g>
<defs>
<clipPath id="clip0_1_149">
<rect width="147" height="119" fill="white" transform="translate(0 7)"/>
</clipPath>
</defs>
</svg>
