<svg width="148" height="139" viewBox="0 0 148 139" fill="none" xmlns="http://www.w3.org/2000/svg">
<path d="M133.7 17.1C141.9 27.2 141.1 45.6 142.7 60.8C144.4 76 148.4 88 147.6 100.8C146.8 113.7 141.1 127.4 130.9 133.8C120.6 140.1 105.8 139.1 91.4 138.5C77 138 63 137.9 53 131.5C42.9 125 36.7 112.3 29.7 98.1C22.6 84 14.6 68.3 19.1 57.3C23.6 46.4 40.6 40.2 54.7 32.1C68.8 23.9 79.9 13.7 94.1 9.5C108.2 5.3 125.5 7.1 133.7 17.1Z" fill="#9AAAE3"/>
<g clip-path="url(#clip0_1_46)">
<path d="M14.2274 118.36L14.0101 113.606C11.745 112.427 9.21864 111.805 6.65032 111.793C10.1851 114.605 9.74335 120.026 12.1399 123.808C12.8966 124.982 13.9151 125.975 15.1199 126.714C16.3247 127.452 17.6849 127.918 19.0997 128.076L22.0577 129.838C22.4636 127.636 22.3741 125.375 21.7954 123.21C21.2167 121.045 20.1626 119.027 18.7056 117.297C17.8783 116.334 16.9298 115.477 15.8823 114.744C15.1738 116.562 14.2274 118.36 14.2274 118.36Z" fill="#F2F2F2"/>
<path d="M94.2392 31.0456H51.9107C50.1288 31.0456 48.6844 32.4513 48.6844 34.1852V55.4552C48.6844 57.1891 50.1288 58.5947 51.9107 58.5947H94.2392C96.021 58.5947 97.4655 57.1891 97.4655 55.4552V34.1852C97.4655 32.4513 96.021 31.0456 94.2392 31.0456Z" fill="white"/>
<path d="M94.2392 58.8066H51.9107C50.9976 58.8056 50.1222 58.4522 49.4765 57.8239C48.8308 57.1956 48.4676 56.3437 48.4666 55.4552V34.1852C48.4676 33.2966 48.8308 32.4448 49.4765 31.8165C50.1222 31.1882 50.9976 30.8348 51.9107 30.8338H94.2392C95.1523 30.8348 96.0277 31.1882 96.6733 31.8165C97.319 32.4448 97.6822 33.2967 97.6832 34.1852V55.4552C97.6822 56.3437 97.319 57.1956 96.6733 57.8239C96.0277 58.4522 95.1523 58.8056 94.2392 58.8066ZM51.9107 31.2576C51.113 31.2585 50.3483 31.5672 49.7843 32.116C49.2203 32.6649 48.903 33.409 48.9021 34.1852V55.4552C48.903 56.2314 49.2203 56.9755 49.7843 57.5244C50.3483 58.0732 51.113 58.3819 51.9107 58.3828H94.2392C95.0368 58.3819 95.8015 58.0732 96.3655 57.5243C96.9295 56.9755 97.2468 56.2314 97.2476 55.4552V34.1852C97.2468 33.409 96.9295 32.6649 96.3655 32.1161C95.8015 31.5672 95.0368 31.2585 94.2392 31.2576H51.9107Z" fill="#3F3D56"/>
<path d="M138.665 27.761H96.3364C95.4521 27.76 94.6043 27.4178 93.9791 26.8093C93.3538 26.2009 93.0021 25.376 93.0011 24.5155V3.24547C93.0021 2.385 93.3538 1.56005 93.9791 0.95161C94.6043 0.343172 95.4521 0.000941743 96.3364 0H138.665C139.549 0.000984387 140.397 0.343236 141.022 0.951671C141.647 1.56011 141.999 2.38503 142 3.24547V24.5155C141.999 25.3759 141.647 26.2009 141.022 26.8093C140.397 27.4177 139.549 27.76 138.665 27.761Z" fill="#F2F2F2"/>
<path d="M138.665 89.6403H96.3364C95.4521 89.6394 94.6043 89.2972 93.979 88.6887C93.3538 88.0802 93.002 87.2553 93.0011 86.3948V65.1249C93.0021 64.2644 93.3538 63.4394 93.9791 62.831C94.6043 62.2226 95.4521 61.8803 96.3364 61.8794H138.665C139.549 61.8804 140.397 62.2226 141.022 62.8311C141.647 63.4395 141.999 64.2644 142 65.1249V86.3948C141.999 87.2552 141.647 88.0802 141.022 88.6886C140.397 89.2971 139.549 89.6394 138.665 89.6403Z" fill="#F2F2F2"/>
<path d="M85.249 41.7832C84.968 40.7835 84.3906 39.8866 83.5889 39.2044C82.7872 38.5222 81.7968 38.0849 80.7412 37.9471C80.7179 37.9437 80.6957 37.9482 80.6724 37.9467C80.6423 37.9372 80.6116 37.93 80.5805 37.925C75.6568 37.2734 69.9732 39.6847 67.9212 44.4644C66.9053 43.0865 65.2854 42.1962 63.553 42.2847C61.3428 42.3976 59.3923 44.045 58.7948 46.2119C58.7618 46.3421 58.7708 46.4791 58.8205 46.6042C58.8703 46.7293 58.9583 46.8365 59.0727 46.9113C59.3939 47.1914 59.7798 47.392 60.1976 47.496C61.0918 47.6899 61.9891 47.8676 62.8897 48.029C64.6469 48.3439 66.4133 48.5985 68.1889 48.7928C71.7916 49.1882 75.4192 49.3286 79.0429 49.2129C80.2496 49.1744 81.4133 49.1334 82.5189 48.588C83.3319 48.1735 84.0194 47.5592 84.513 46.8062C84.9883 46.0649 85.2993 45.2353 85.426 44.3703C85.5528 43.5053 85.4925 42.6241 85.249 41.7832Z" fill="#3F3D56"/>
<path d="M84.7062 42.0364C84.44 41.1497 83.9083 40.3604 83.179 39.769C82.4208 39.1671 81.5047 38.7834 80.5343 38.6612H80.4756L80.421 38.6517C80.4036 38.6464 80.3859 38.6423 80.3679 38.6394C78.7443 38.4517 77.0987 38.5662 75.5191 38.977C72.4828 39.7541 69.6074 41.594 68.2648 44.5623L68.0732 44.9882L67.7865 44.6167C67.3456 44.0305 66.7712 43.5517 66.1083 43.2178C65.4454 42.8839 64.712 42.7041 63.9656 42.6923C63.8929 42.6923 63.8202 42.6937 63.746 42.6978C62.7354 42.7611 61.7697 43.1272 60.9814 43.7459C60.1931 44.3645 59.6209 45.2055 59.3434 46.1532C59.3293 46.2218 59.3376 46.2929 59.3672 46.3566C59.3968 46.4203 59.4462 46.4734 59.5084 46.5084L59.5308 46.5247C59.8127 46.7573 60.1465 46.9227 60.5056 47.0079C61.3741 47.1875 62.258 47.3535 63.1321 47.5019C64.8271 47.7904 66.5669 48.0286 68.3011 48.2096C71.3683 48.53 74.4527 48.6695 77.5372 48.6274C77.9889 48.6219 78.4397 48.6124 78.8896 48.5988C80.0476 48.5648 81.1427 48.5308 82.1804 48.0449C82.9239 47.6864 83.5591 47.1462 84.0237 46.4771C84.4634 45.8301 84.7524 45.0974 84.8703 44.3303C84.9882 43.5631 84.9322 42.7802 84.7062 42.0364Z" fill="white"/>
<path d="M77.5372 48.6274C74.4527 48.6695 71.3683 48.53 68.3011 48.2096C66.5669 48.0286 64.8271 47.7904 63.1321 47.5019C62.258 47.3536 61.3741 47.1875 60.5056 47.0079C60.1465 46.9227 59.8127 46.7573 59.5308 46.5247L59.5084 46.5084C59.4462 46.4734 59.3968 46.4203 59.3672 46.3566C59.3376 46.2929 59.3293 46.2218 59.3434 46.1532C59.6209 45.2055 60.1931 44.3645 60.9814 43.7459C61.7697 43.1272 62.7354 42.7611 63.746 42.6978C63.8202 42.6937 63.8929 42.6923 63.9656 42.6923C64.712 42.7041 65.4454 42.8839 66.1083 43.2178C66.7712 43.5517 67.3456 44.0305 67.7865 44.6167L68.0732 44.9882L68.2648 44.5623C69.6074 41.5941 72.4828 39.7541 75.5191 38.977C76.1316 39.5159 76.526 40.342 76.3023 41.1082C76.0324 42.0377 74.9639 42.6175 74.7848 43.5674C74.6212 44.4343 75.2589 45.24 75.9149 45.847C76.5708 46.4526 77.3302 47.061 77.5204 47.9211C77.5713 48.1534 77.577 48.393 77.5372 48.6274Z" fill="#6C63FF"/>
<path d="M80.1735 45.9858C81.5638 45.9858 82.6909 44.889 82.6909 43.5361C82.6909 42.1832 81.5638 41.0864 80.1735 41.0864C78.7832 41.0864 77.6561 42.1832 77.6561 43.5361C77.6561 44.889 78.7832 45.9858 80.1735 45.9858Z" fill="#3F3D56"/>
<path d="M81.2287 43.2748L80.2847 42.3561C80.2701 42.3419 80.2528 42.3306 80.2337 42.3229C80.2146 42.3152 80.1941 42.3113 80.1735 42.3113C80.1528 42.3113 80.1323 42.3152 80.1133 42.3229C80.0942 42.3306 80.0768 42.3419 80.0622 42.3561L79.1182 43.2748C79.1035 43.289 79.0919 43.3058 79.084 43.3244C79.076 43.343 79.0719 43.3629 79.0719 43.3831C79.0719 43.4032 79.0759 43.4231 79.0838 43.4417C79.0918 43.4603 79.1034 43.4772 79.118 43.4915C79.1326 43.5057 79.15 43.517 79.1691 43.5247C79.1882 43.5324 79.2087 43.5363 79.2294 43.5363C79.2501 43.5363 79.2705 43.5323 79.2896 43.5246C79.3087 43.5168 79.3261 43.5055 79.3407 43.4913L80.0161 42.834V44.6079C80.0161 44.6485 80.0327 44.6874 80.0622 44.7161C80.0917 44.7448 80.1317 44.761 80.1735 44.761C80.2152 44.761 80.2552 44.7448 80.2847 44.7161C80.3142 44.6874 80.3308 44.6485 80.3308 44.6079V42.834L81.0063 43.4913C81.0358 43.5198 81.0758 43.5358 81.1174 43.5357C81.159 43.5356 81.1989 43.5195 81.2283 43.4909C81.2578 43.4622 81.2743 43.4234 81.2744 43.3829C81.2745 43.3424 81.2581 43.3035 81.2287 43.2748Z" fill="white"/>
<path d="M125.775 20.1449H110.755C110.449 20.1446 110.156 20.0262 109.939 19.8157C109.723 19.6052 109.601 19.3198 109.601 19.0222V5.67885C109.601 5.3812 109.723 5.09583 109.939 4.88536C110.156 4.67489 110.449 4.55651 110.755 4.55618H125.775C126.081 4.55651 126.374 4.67489 126.59 4.88536C126.806 5.09583 126.928 5.3812 126.928 5.67885V19.0222C126.928 19.3198 126.806 19.6052 126.59 19.8157C126.374 20.0262 126.081 20.1446 125.775 20.1449Z" fill="white"/>
<path d="M125.775 20.3568H110.755C110.391 20.3564 110.043 20.2157 109.786 19.9655C109.528 19.7153 109.384 19.3761 109.383 19.0222V5.67887C109.384 5.32504 109.528 4.9858 109.786 4.7356C110.043 4.4854 110.391 4.34466 110.755 4.34426H125.775C126.138 4.34466 126.487 4.4854 126.744 4.7356C127.001 4.9858 127.146 5.32504 127.146 5.67887V19.0222C127.146 19.3761 127.001 19.7153 126.744 19.9655C126.487 20.2157 126.138 20.3564 125.775 20.3568ZM110.755 4.7681C110.507 4.76839 110.269 4.86444 110.093 5.03518C109.918 5.20593 109.819 5.43742 109.819 5.67888V19.0222C109.819 19.2637 109.918 19.4952 110.093 19.6659C110.269 19.8367 110.507 19.9327 110.755 19.933H125.775C126.023 19.9327 126.261 19.8367 126.436 19.6659C126.612 19.4952 126.71 19.2637 126.711 19.0222V5.67887C126.71 5.43741 126.612 5.20592 126.436 5.03517C126.261 4.86443 126.023 4.76838 125.775 4.76809L110.755 4.7681Z" fill="#CCCCCC"/>
<path d="M115.18 10.8808C116.214 10.8808 117.052 10.0652 117.052 9.059C117.052 8.05282 116.214 7.23715 115.18 7.23715C114.146 7.23715 113.308 8.05282 113.308 9.059C113.308 10.0652 114.146 10.8808 115.18 10.8808Z" fill="#CCCCCC"/>
<path d="M122.664 13.6499H113.865C113.718 13.6499 113.576 13.5928 113.471 13.491C113.367 13.3893 113.308 13.2513 113.308 13.1074C113.308 12.9635 113.367 12.8256 113.471 12.7238C113.576 12.6221 113.718 12.5649 113.865 12.5649H122.664C122.812 12.5649 122.954 12.6221 123.058 12.7238C123.163 12.8256 123.221 12.9635 123.221 13.1074C123.221 13.2513 123.163 13.3893 123.058 13.491C122.954 13.5928 122.812 13.6499 122.664 13.6499Z" fill="#CCCCCC"/>
<path d="M118.111 15.7937H113.865C113.718 15.7937 113.576 15.7365 113.471 15.6348C113.367 15.533 113.308 15.395 113.308 15.2511C113.308 15.1072 113.367 14.9692 113.471 14.8675C113.576 14.7657 113.718 14.7086 113.865 14.7086H118.111C118.184 14.7084 118.257 14.7224 118.325 14.7496C118.393 14.7768 118.454 14.8167 118.506 14.8671C118.558 14.9175 118.599 14.9774 118.627 15.0433C118.655 15.1092 118.67 15.1798 118.67 15.2511C118.67 15.3225 118.655 15.3931 118.627 15.459C118.599 15.5249 118.558 15.5847 118.506 15.6351C118.454 15.6855 118.393 15.7255 118.325 15.7527C118.257 15.7799 118.184 15.7938 118.111 15.7937Z" fill="#CCCCCC"/>
<path d="M110.442 24.0611C109.66 24.0611 108.896 23.8355 108.245 23.4128C107.595 22.9901 107.089 22.3893 106.79 21.6864C106.49 20.9835 106.412 20.21 106.565 19.4638C106.717 18.7176 107.094 18.0322 107.646 17.4942C108.199 16.9562 108.904 16.5898 109.67 16.4414C110.437 16.293 111.232 16.3691 111.955 16.6603C112.677 16.9515 113.294 17.4445 113.729 18.0771C114.163 18.7097 114.395 19.4534 114.395 20.2143C114.395 21.2345 113.978 22.2129 113.237 22.9344C112.496 23.6558 111.49 24.0611 110.442 24.0611Z" fill="#CCCCCC"/>
<path d="M112.002 19.8348H110.832V18.6964C110.831 18.5959 110.79 18.4996 110.717 18.4287C110.644 18.3577 110.545 18.3178 110.442 18.3178C110.338 18.3178 110.239 18.3577 110.166 18.4287C110.093 18.4996 110.052 18.5959 110.052 18.6964V19.8348H108.882C108.778 19.8348 108.679 19.8748 108.606 19.9459C108.533 20.0171 108.492 20.1136 108.492 20.2143C108.492 20.3149 108.533 20.4114 108.606 20.4826C108.679 20.5537 108.778 20.5937 108.882 20.5937H110.052V21.7321C110.052 21.8327 110.093 21.9293 110.166 22.0004C110.239 22.0716 110.338 22.1116 110.442 22.1116C110.545 22.1116 110.644 22.0716 110.717 22.0004C110.791 21.9293 110.832 21.8327 110.832 21.7321V20.5937H112.002C112.105 20.5937 112.204 20.5537 112.277 20.4826C112.35 20.4114 112.391 20.3149 112.391 20.2143C112.391 20.1136 112.35 20.0171 112.277 19.9459C112.204 19.8748 112.105 19.8348 112.002 19.8348Z" fill="white"/>
<path d="M110.179 80.7221C110.171 80.7221 110.163 80.722 110.155 80.7217C110.062 80.7184 109.972 80.6933 109.891 80.6486C109.81 80.6039 109.742 80.5408 109.691 80.4647C109.314 79.9157 108.85 79.4273 108.318 79.0174C107.996 78.7667 107.659 78.5337 107.333 78.3083C106.493 77.727 105.702 77.1795 105.263 76.4231C104.305 74.7736 105.433 72.4761 107.044 71.4458C108.851 70.2902 111.228 70.1089 113.527 70.0852C113.766 70.0827 114.005 70.0815 114.244 70.0815C118.386 70.0831 122.52 70.4509 126.594 71.1804C127.949 71.4237 129.367 71.7216 130.507 72.4447C131.64 73.1635 132.328 74.2955 132.261 75.3286C132.163 76.8367 130.52 77.9636 129.024 78.2583C127.598 78.5388 126.117 78.3492 124.548 78.1484C124.202 78.1041 123.844 78.0583 123.49 78.0184C119.643 77.5857 112.416 78.9195 112.11 78.9765L111.806 79.033L110.629 80.5069C110.576 80.5741 110.508 80.6285 110.43 80.6658C110.352 80.7032 110.266 80.7224 110.179 80.7221Z" fill="white"/>
<path d="M110.179 80.9341L110.15 80.9337C110.022 80.9295 109.897 80.8953 109.785 80.8339C109.673 80.7725 109.579 80.6857 109.509 80.581C109.144 80.0507 108.696 79.5789 108.182 79.1829C107.864 78.9352 107.53 78.7044 107.207 78.4811C106.348 77.8864 105.536 77.3249 105.073 76.5273C104.057 74.7761 105.233 72.3505 106.924 71.2685C108.778 70.0831 111.192 69.8975 113.524 69.8733C113.764 69.8708 114.004 69.8696 114.244 69.8696C118.4 69.8711 122.547 70.24 126.634 70.972C128.01 71.2191 129.452 71.5225 130.626 72.2671C131.823 73.027 132.55 74.2339 132.478 75.3419C132.373 76.9553 130.642 78.1556 129.067 78.466C127.605 78.7537 126.106 78.5618 124.52 78.3584C124.175 78.3143 123.818 78.2688 123.465 78.2289C119.641 77.7996 112.455 79.1278 112.151 79.1847L111.928 79.2261L110.801 80.6369C110.728 80.7296 110.634 80.8046 110.526 80.8562C110.418 80.9077 110.299 80.9344 110.179 80.9341ZM114.244 70.2934C114.005 70.2934 113.767 70.2946 113.529 70.2971C111.263 70.3205 108.923 70.4975 107.164 71.6228C105.633 72.6017 104.554 74.771 105.453 76.3187C105.868 77.0342 106.641 77.5691 107.459 78.1353C107.787 78.3623 108.126 78.5968 108.454 78.8518C109.004 79.2757 109.483 79.7807 109.873 80.3484C109.905 80.3962 109.948 80.4358 109.998 80.4639C110.049 80.4921 110.106 80.5079 110.164 80.5101L110.179 80.5103C110.233 80.5106 110.286 80.4988 110.334 80.4756C110.383 80.4525 110.425 80.4187 110.457 80.377L111.685 78.84L112.069 78.7684C112.375 78.7111 119.625 77.3696 123.515 77.8079C123.87 77.8479 124.229 77.8938 124.577 77.9383C126.126 78.137 127.59 78.3245 128.981 78.0505C130.397 77.7715 131.952 76.7179 132.044 75.315C132.106 74.3571 131.456 73.3 130.388 72.6222C129.282 71.9205 127.888 71.628 126.555 71.3888C122.494 70.6616 118.373 70.2949 114.244 70.2934Z" fill="#CCCCCC"/>
<path d="M127.311 73.3648H111.05C110.957 73.3646 110.867 73.3282 110.801 73.2637C110.735 73.1991 110.697 73.1117 110.697 73.0205C110.697 72.9293 110.735 72.8419 110.801 72.7774C110.867 72.7128 110.957 72.6764 111.05 72.6762H127.311C127.405 72.6764 127.495 72.7128 127.561 72.7774C127.627 72.8419 127.664 72.9293 127.664 73.0205C127.664 73.1117 127.627 73.1991 127.561 73.2637C127.495 73.3282 127.405 73.3646 127.311 73.3648Z" fill="#CCCCCC"/>
<path d="M127.311 75.4781H111.05C111.004 75.4782 110.958 75.4695 110.915 75.4522C110.872 75.435 110.833 75.4097 110.8 75.3778C110.767 75.3458 110.74 75.3079 110.723 75.2661C110.705 75.2243 110.695 75.1794 110.695 75.1342C110.695 75.0889 110.704 75.044 110.722 75.0022C110.74 74.9604 110.766 74.9223 110.799 74.8903C110.832 74.8583 110.871 74.8329 110.914 74.8156C110.957 74.7983 111.003 74.7895 111.05 74.7895H127.311C127.405 74.7897 127.495 74.8261 127.561 74.8906C127.627 74.9552 127.664 75.0426 127.664 75.1338C127.664 75.225 127.627 75.3124 127.561 75.3769C127.495 75.4415 127.405 75.4779 127.311 75.4781Z" fill="#CCCCCC"/>
<path d="M112.945 77.5913H111.05C110.957 77.5911 110.867 77.5547 110.801 77.4902C110.735 77.4256 110.697 77.3382 110.697 77.247C110.697 77.1559 110.735 77.0684 110.801 77.0039C110.867 76.9394 110.957 76.903 111.05 76.9027H112.945C113.039 76.903 113.129 76.9394 113.195 77.0039C113.261 77.0684 113.298 77.1559 113.298 77.247C113.298 77.3382 113.261 77.4256 113.195 77.4902C113.129 77.5547 113.039 77.5911 112.945 77.5913Z" fill="#CCCCCC"/>
<path d="M110.162 84.589C111.463 84.589 112.518 83.5626 112.518 82.2965C112.518 81.0305 111.463 80.0041 110.162 80.0041C108.861 80.0041 107.806 81.0305 107.806 82.2965C107.806 83.5626 108.861 84.589 110.162 84.589Z" fill="white"/>
<path d="M110.162 84.617C109.691 84.617 109.23 84.4809 108.837 84.2259C108.445 83.9709 108.14 83.6085 107.959 83.1845C107.779 82.7605 107.731 82.294 107.823 81.8439C107.915 81.3938 108.143 80.9803 108.476 80.6558C108.81 80.3313 109.234 80.1103 109.697 80.0207C110.16 79.9312 110.639 79.9771 111.075 80.1528C111.51 80.3284 111.883 80.6258 112.145 81.0074C112.407 81.389 112.547 81.8376 112.547 82.2965C112.546 82.9117 112.295 83.5015 111.848 83.9365C111.4 84.3716 110.794 84.6163 110.162 84.617Z" fill="#CCCCCC"/>
<path d="M109.986 83.2127C109.981 83.2127 109.976 83.2126 109.971 83.2123C109.926 83.2102 109.883 83.1988 109.844 83.1789C109.804 83.159 109.77 83.131 109.742 83.0969L109.349 82.6043C109.324 82.5732 109.306 82.5377 109.295 82.4997C109.284 82.4617 109.281 82.4221 109.286 82.383C109.291 82.3439 109.304 82.3061 109.324 82.2719C109.344 82.2377 109.371 82.2076 109.403 82.1834L109.417 82.1727C109.449 82.1485 109.485 82.1306 109.524 82.1202C109.563 82.1097 109.604 82.1068 109.644 82.1117C109.685 82.1166 109.723 82.1292 109.759 82.1486C109.794 82.1681 109.825 82.1942 109.85 82.2253C109.869 82.2501 109.895 82.2705 109.923 82.285C109.952 82.2995 109.984 82.3078 110.016 82.3093C110.048 82.3109 110.081 82.3056 110.111 82.2939C110.141 82.2822 110.168 82.2643 110.19 82.2414L110.989 81.4202C111.046 81.3625 111.123 81.3289 111.205 81.3268C111.286 81.3246 111.366 81.3541 111.425 81.4087L111.438 81.4208C111.468 81.4479 111.491 81.4804 111.508 81.5164C111.524 81.5523 111.533 81.5911 111.534 81.6305C111.535 81.6699 111.529 81.7091 111.514 81.7459C111.5 81.7826 111.478 81.8163 111.45 81.8449L110.209 83.119C110.181 83.1486 110.146 83.1722 110.108 83.1883C110.069 83.2044 110.028 83.2127 109.986 83.2127Z" fill="white"/>
<path d="M35.8967 70.8688C35.8024 70.8692 35.7084 70.8778 35.6157 70.8946L34.0735 61.3941L35.6185 52.248C35.7157 51.6727 35.5851 51.0829 35.253 50.5976C34.9209 50.1123 34.412 49.7676 33.829 49.633C33.246 49.4984 32.6322 49.584 32.1115 49.8725C31.5908 50.1609 31.2019 50.6308 31.0231 51.1873C30.444 52.9908 30.1573 54.8712 30.1736 56.7606L30.2275 62.998L34.3389 72.5774C34.3749 72.8696 34.4968 73.1455 34.6901 73.3719C34.8834 73.5982 35.1398 73.7654 35.4285 73.8533C35.7171 73.9412 36.0257 73.9461 36.3171 73.8673C36.6085 73.7885 36.8703 73.6295 37.0711 73.4094C37.2718 73.1892 37.4028 72.9173 37.4485 72.6264C37.4941 72.3354 37.4524 72.0378 37.3283 71.7694C37.2042 71.501 37.0031 71.2732 36.7491 71.1135C36.4951 70.9537 36.1991 70.8687 35.8967 70.8688Z" fill="#FFB8B8"/>
<path d="M29.3494 52.6173C29.349 52.1413 29.4451 51.67 29.632 51.2301C29.8189 50.7902 30.0931 50.3906 30.4388 50.0539C30.7845 49.7172 31.1951 49.4501 31.6469 49.2678C32.0988 49.0856 32.5832 48.9918 33.0723 48.9918C33.5614 48.9918 34.0458 49.0856 34.4976 49.2678C34.9495 49.4501 35.36 49.7172 35.7058 50.0539C36.0515 50.3906 36.3257 50.7902 36.5126 51.2301C36.6995 51.67 36.7955 52.1413 36.7952 52.6173L34.3753 60.9238L30.173 60.7206L29.3494 52.6173Z" fill="#2F2E41"/>
<path d="M38.1793 125.481L40.582 125.48L41.7251 116.462L38.1789 116.462L38.1793 125.481Z" fill="#FFB8B8"/>
<path d="M44.7742 128.116L41.1636 125.69V124.106L40.7541 124.13L38.1801 124.28L37.3655 124.327L36.9017 129.739L36.8865 129.919H38.5917L38.6265 129.739L38.8965 128.353L39.5869 129.739L39.6762 129.919H44.1971C44.4663 129.919 44.7243 129.815 44.9149 129.63C45.1054 129.445 45.213 129.194 45.2141 128.932C45.2142 128.771 45.1743 128.613 45.0976 128.471C45.021 128.329 44.91 128.207 44.7742 128.116Z" fill="#2F2E41"/>
<path d="M23.7691 120.091L25.6783 121.511L32.2139 115.02L29.3961 112.925L23.7691 120.091Z" fill="#FFB8B8"/>
<path d="M27.3649 126.082L26.01 122.02L26.9978 120.763L26.6579 120.539L24.5187 119.138L23.8425 118.694L20.0968 122.72L19.9723 122.854L21.3272 123.862L21.4672 123.739L22.5466 122.797L22.2304 124.307L22.1889 124.502L25.7811 127.174C25.9953 127.332 26.2653 127.402 26.5322 127.368C26.799 127.333 27.041 127.197 27.2053 126.99C27.3056 126.862 27.3725 126.713 27.4003 126.555C27.4281 126.397 27.4159 126.234 27.3649 126.082Z" fill="#2F2E41"/>
<path d="M33.5165 81.1319L35.9185 88.3053C35.9185 88.3053 36.7722 95.9597 37.6846 97.655C37.855 97.9995 37.9724 98.3665 38.0331 98.7442C38.0592 98.8714 38.0788 99.0049 38.0962 99.1384C38.1311 99.4033 38.155 99.6767 38.1703 99.9522C38.2159 101.123 38.1642 102.295 38.0156 103.457C37.5845 103.822 37.2687 107.109 37.0487 111.163C37.0248 111.584 37.0023 112.013 36.9812 112.449C36.9377 113.328 36.8985 114.231 36.8636 115.138C36.6132 121.44 36.7526 120.093 36.7526 120.093C42.8415 121.18 42.5911 119.22 42.5911 119.22C42.5911 119.22 44.6817 110.13 45.2218 105.99C45.2871 105.506 45.3263 105.197 45.335 105.108C45.3589 104.67 45.4417 104.237 45.5811 103.82C45.6992 103.656 45.8047 103.484 45.8969 103.305L45.8977 103.304L45.8984 103.304L45.8989 103.303L45.899 103.303C46.3297 102.392 46.5725 101.409 46.6133 100.408C46.6442 99.9739 46.6456 99.5385 46.6177 99.1045C46.5834 96.5643 46.8044 94.0269 47.2775 91.5285C47.6586 89.8226 47.4104 86.5252 47.0728 83.7003C46.9356 82.5348 46.781 81.4498 46.6525 80.5915C46.646 80.5555 46.6416 80.5195 46.6373 80.4834C46.4718 79.4048 46.3498 78.7097 46.3498 78.7097C46.3498 78.7097 46.9052 76.8576 46.4936 76.1731C46.3041 75.8658 46.3302 75.141 46.4108 74.4248C46.511 73.5517 46.6983 72.7379 46.6983 72.7379L35.3893 70.7989C35.1519 71.1825 34.9407 71.5533 34.7338 71.9114C30.9947 78.6356 33.5165 81.1319 33.5165 81.1319Z" fill="#2F2E41"/>
<path d="M30.2843 50.446C30.4102 50.1083 30.6213 49.8069 30.8983 49.5694C31.1752 49.332 31.5091 49.1662 31.8692 49.0872C32.403 48.9396 32.9585 48.8805 33.5124 48.9125C35.134 48.9746 36.2769 46.0057 37.8826 46.2346C37.8826 46.2346 39.3939 45.7097 40.5764 46.6715C41.6507 47.5452 42.3912 49.9214 42.6669 49.7863C42.7974 49.7576 42.9327 49.7577 43.0631 49.7865C44.1732 49.9383 45.1834 50.4925 45.8916 51.338C46.5999 52.1835 46.9539 53.2581 46.8829 54.3468L46.766 56.2741C46.766 56.2741 47.5921 57.4843 46.3934 59.6207L47.0893 67.1571C47.0893 67.1571 48.2486 77.6563 46.5066 79.1505C44.7647 80.6447 38.3478 74.13 38.3478 74.13C38.3478 74.13 33.4181 73.3654 33.71 72.4785C34.0018 71.5916 35.5328 69.1319 35.5328 69.1319C35.5683 68.9947 35.5641 68.8506 35.5205 68.7156C35.4769 68.5807 35.3957 68.4601 35.2858 68.3674C34.9132 68.1358 35.3307 67.6115 35.3622 67.5635C35.3262 67.5984 35.0434 67.8868 34.8279 67.2795C34.6124 66.6722 35.2769 65.9076 35.2769 65.9076L33.4002 61.9756L31.9231 58.8693L31.7435 58.511L30.4998 56.012L30.471 55.9539C29.8145 54.622 29.6692 53.1054 30.0613 51.6783C30.191 51.2788 30.2659 50.8645 30.2843 50.446Z" fill="#6C63FF"/>
<path d="M26.38 114.71C30.8466 118.88 31.746 117.107 31.746 117.107C31.746 117.107 34.1611 114.401 37.0487 111.162C38.0853 110.001 39.1807 108.772 40.2478 107.575C41.7221 105.92 43.1399 104.326 44.2679 103.059C45.5158 101.654 46.4043 100.649 46.6133 100.408C46.6442 99.9739 46.6456 99.5385 46.6177 99.1045C46.5834 96.5643 46.8044 94.0269 47.2775 91.5285C47.6586 89.8226 47.4104 86.5252 47.0728 83.7003C46.5676 84.7239 45.984 85.9382 45.5005 87.0592C44.9604 88.3074 44.5401 89.4369 44.4748 90.0515C44.2679 91.9439 41.4695 95.0717 41.4695 95.0717L41.4369 95.0781C40.9774 95.1968 39.6816 96.6632 38.0331 98.7442C33.5295 104.428 26.38 114.71 26.38 114.71Z" fill="#2F2E41"/>
<path d="M62.9849 48.4472C62.996 48.5383 63.0155 48.6282 63.0431 48.7159L53.5187 51.287L44.0051 50.833C43.4067 50.8044 42.8193 50.9978 42.3616 51.374C41.9039 51.7503 41.6098 52.2814 41.5387 52.8604C41.4675 53.4393 41.6247 54.023 41.9784 54.4936C42.3321 54.9642 42.856 55.2868 43.4445 55.3963C45.3517 55.7513 47.3041 55.8146 49.2313 55.584L55.5935 54.8229L64.9064 49.759C65.2007 49.691 65.4685 49.5417 65.6776 49.3291C65.8867 49.1165 66.0283 48.8496 66.0852 48.5606C66.1421 48.2715 66.112 47.9726 65.9985 47.6998C65.8849 47.427 65.6928 47.192 65.4452 47.023C65.1976 46.854 64.9051 46.7582 64.6029 46.7471C64.3007 46.7361 64.0016 46.8102 63.7416 46.9607C63.4817 47.1111 63.272 47.3315 63.1377 47.5952C63.0035 47.8589 62.9504 48.1548 62.9849 48.4472Z" fill="#FFB8B8"/>
<path d="M45.0948 56.852C44.609 56.9063 44.1169 56.8669 43.6467 56.7361C43.1764 56.6053 42.7373 56.3857 42.3544 56.0897C41.9714 55.7937 41.6522 55.4272 41.4148 55.0111C41.1774 54.5951 41.0267 54.1375 40.9711 53.6647C40.9155 53.1919 40.9562 52.7131 41.0908 52.2556C41.2254 51.7981 41.4514 51.3709 41.7557 50.9984C42.06 50.6259 42.4368 50.3154 42.8645 50.0846C43.2922 49.8538 43.7625 49.7073 44.2484 49.6534L53.0042 51.0487L53.2744 55.1345L45.0948 56.852Z" fill="#2F2E41"/>
<path d="M43.569 43.0579C43.0287 44.0192 42.1681 44.7728 41.1289 45.1946C40.0897 45.6164 38.9339 45.6813 37.8518 45.3785C36.7697 45.0757 35.8258 44.4233 35.1756 43.5287C34.5254 42.6342 34.2076 41.5508 34.2747 40.4571C34.3417 39.3633 34.7895 38.3244 35.5444 37.5114C36.2993 36.6984 37.3161 36.1598 38.4276 35.9843C39.539 35.8088 40.6787 36.0069 41.659 36.5459C42.6393 37.085 43.4018 37.9328 43.8208 38.9498C43.8434 39.005 43.8639 39.0602 43.8843 39.1176C44.1211 39.7587 44.2155 40.4414 44.1612 41.1206C44.1068 41.7999 43.905 42.4602 43.569 43.0579Z" fill="#FFB6B6"/>
<path d="M44.2813 39.1176C44.068 38.537 44.161 38.8394 43.9455 38.2611C44.0149 38.546 43.9935 38.8447 43.8843 39.1176H37.984V35.7799C39.7126 35.1132 41.4026 34.5459 42.4234 35.7799C43.333 35.7799 44.2054 36.1316 44.8487 36.7575C45.4919 37.3834 45.8533 38.2324 45.8533 39.1176H44.2813Z" fill="#2F2E41"/>
<path d="M42.1897 48.3955C42.1852 48.3337 42.1784 48.2697 42.1693 48.2079C42.09 47.7544 41.9615 47.3104 41.7859 46.8834C41.6158 46.4176 41.4434 45.9496 41.271 45.4839C41.493 46.3293 41.4253 47.2222 41.0782 48.0268C40.0823 47.2719 40.7107 45.5457 39.4086 45.5457C36.2781 45.5457 33.0569 43.0755 33.0569 40.027C33.0569 36.9807 34.3998 34.7026 37.5303 34.7026C40.663 34.7026 43.2037 36.0977 43.265 39.144C39.4086 40.027 42.9179 48.0865 42.1897 48.3955Z" fill="#2F2E41"/>
<path d="M33.448 39.5601C35.4526 39.5601 37.0776 37.9788 37.0776 36.0282C37.0776 34.0775 35.4526 32.4962 33.448 32.4962C31.4435 32.4962 29.8185 34.0775 29.8185 36.0282C29.8185 37.9788 31.4435 39.5601 33.448 39.5601Z" fill="#2F2E41"/>
<path d="M1.14758e-06 129.748C-0.00010035 129.781 0.0065318 129.814 0.0195202 129.844C0.0325085 129.875 0.0515922 129.903 0.0756781 129.926C0.099764 129.95 0.128373 129.968 0.159862 129.981C0.191351 129.994 0.225097 130 0.259158 130H61.2988C61.3675 130 61.4334 129.973 61.482 129.926C61.5306 129.879 61.5579 129.815 61.5579 129.748C61.5579 129.681 61.5306 129.617 61.482 129.569C61.4334 129.522 61.3675 129.496 61.2988 129.496H0.259158C0.225097 129.496 0.191357 129.502 0.159868 129.515C0.12838 129.527 0.0997704 129.546 0.0756847 129.569C0.051599 129.593 0.0325089 129.621 0.0195202 129.651C0.00653139 129.682 -9.91936e-05 129.715 1.14758e-06 129.748Z" fill="#CCCCCC"/>
</g>
<defs>
<clipPath id="clip0_1_46">
<rect width="142" height="130" fill="white"/>
</clipPath>
</defs>
</svg>
