<svg width="160" height="142" viewBox="0 0 160 142" fill="none" xmlns="http://www.w3.org/2000/svg">
<path d="M127.2 1.8C142.4 5.5 153.4 22.4 157.6 40.3C161.7 58.2 159 77.1 149.8 90.4C140.6 103.7 124.9 111.3 111.1 119.3C97.2 127.3 85.1 135.7 70.2 139.5C55.3 143.3 37.7 142.6 27.4 133.5C17.1 124.3 14.2 106.7 9.7 90.2C5.3 73.7 -0.7 58.4 1.2 43.6C3.2 28.8 13.1 14.5 26.4 10.1C39.7 5.8 56.3 11.4 74.4 9.4C92.5 7.5 112 -2 127.2 1.8Z" fill="#9AAAE3"/>
<g clip-path="url(#clip0_1_87)">
<path d="M148.7 135.702C148.745 141.115 118.963 141.611 118.396 135.702C118.351 130.289 148.133 129.793 148.7 135.702Z" fill="#E6E6E6"/>
<path d="M125.399 116.909L123.186 118.292L124.594 123.593L126.807 123.823L128.015 120.827L125.399 116.909Z" fill="#9F616A"/>
<path d="M132.24 127.511V130.046L135.661 129.815L135.613 127.727L132.24 127.511Z" fill="#9F616A"/>
<path d="M124.594 86.4866L125.801 103.772L129.624 129.124L135.661 128.202L133.649 108.151L134.454 89.7133L124.594 86.4866Z" fill="#2F2E41"/>
<path d="M140.691 73.5803L126.204 73.8108L124.594 86.4867L134.453 91.7876L136.868 101.928L124.594 116.909L129.423 123.823C129.423 123.823 136.264 113.222 141.295 107.229C146.325 101.237 143.91 83.0296 143.91 83.0296L140.691 73.5803Z" fill="#2F2E41"/>
<path d="M132.039 40.8532C134.484 40.8532 136.466 38.5831 136.466 35.7828C136.466 32.9825 134.484 30.7124 132.039 30.7124C129.594 30.7124 127.612 32.9825 127.612 35.7828C127.612 38.5831 129.594 40.8532 132.039 40.8532Z" fill="#9F616A"/>
<path d="M130.429 39.2399V44.3103L133.447 49.8416C133.447 49.8416 138.075 45.9236 137.069 45.0017C136.063 44.0798 135.862 36.9352 135.862 36.9352L130.429 39.2399Z" fill="#9F616A"/>
<path d="M130.429 43.3884L127.411 47.5368L128.618 76.3457L138.075 76.1153L139.685 50.994L137.673 44.5407L136.293 42.3898L133.85 46.6149L130.429 43.3884Z" fill="#D0CDE1"/>
<path d="M125.6 58.3691L123.387 68.0489L125.6 77.7288L121.978 83.2601L118.759 65.7442C118.759 65.7442 121.174 51.455 121.375 49.8416C121.576 48.2283 121.978 47.9978 121.978 47.9978L123.588 48.2283L125.6 58.3691Z" fill="#2F2E41"/>
<path d="M141.697 62.0565L143.105 65.0528L143.508 70.1231L142.703 75.8849L145.52 81.1858L148.337 66.666L145.319 47.9977H144.111L141.697 62.0565Z" fill="#2F2E41"/>
<path d="M124.594 116.679C124.594 116.679 121.777 117.6 120.771 117.831C119.765 118.061 121.375 122.44 121.375 122.44C121.375 122.44 122.381 128.433 122.582 129.585C122.783 130.737 124.192 134.655 126.003 135.116C127.813 135.577 126.606 127.05 126.606 127.05C126.606 127.05 127.411 124.284 127.411 123.362C127.411 122.44 126.204 122.901 126.204 122.901C122.984 122.44 124.594 116.679 124.594 116.679Z" fill="#2F2E41"/>
<path d="M131.234 134.425C131.435 135.808 131.033 135.808 134.252 136.269C137.472 136.73 136.667 133.734 136.667 133.734C136.532 132.321 136.262 130.93 135.862 129.585C135.258 127.741 132.039 130.046 132.039 130.046C132.039 130.046 131.033 133.042 131.234 134.425Z" fill="#2F2E41"/>
<path d="M135.867 37.0961L135.972 39.1458C135.972 39.1458 137.27 35.7828 137.472 32.3257C137.673 28.8687 134.252 28.1772 132.24 27.9468C130.228 27.7163 126.807 29.3296 126.807 31.1734C126.807 33.0172 130.429 32.5562 131.838 32.0953C133.246 31.6343 133.85 35.5524 133.85 35.5524L134.655 35.7828L135.867 37.0961Z" fill="#2F2E41"/>
<path d="M129.242 45.0205L130.429 43.3884L133.85 46.6149L130.429 49.3806L129.242 45.0205Z" fill="#D0CDE1"/>
<path d="M137.673 44.5407L136.264 42.4665L133.85 46.6149L136.868 49.1502L137.673 44.5407Z" fill="#D0CDE1"/>
<path d="M124.997 61.5957L125.801 70.3537L124.192 75.6545L123.186 80.7249C123.186 80.7249 123.186 85.5648 127.21 85.7953C131.234 86.0258 134.655 71.2755 134.655 71.2755C134.655 71.2755 135.258 74.5022 135.661 76.3459C136.063 78.1897 142.904 85.5648 142.904 85.5648C142.904 85.5648 144.514 85.3344 145.922 81.6468C147.331 77.9593 143.106 74.5022 143.106 74.5022L141.898 69.6622L142.301 63.67L145.118 47.9978L136.767 43.0427L137.673 56.2948L134.655 66.6661L130.127 43.7341L128.618 45.0017L122.18 47.9978L124.997 61.5957Z" fill="#2F2E41"/>
<path d="M45.476 96.455C45.0781 96.4514 44.6757 96.4483 44.2804 96.4343L44.2927 95.9778C44.6838 95.9916 45.0839 95.9978 45.4761 95.9983C45.87 95.9983 46.2715 95.9909 46.6697 95.9762L46.6826 96.4325C46.28 96.4474 45.8741 96.455 45.476 96.455ZM41.8835 96.2621C41.0898 96.176 40.2881 96.0594 39.501 95.9155L39.5639 95.4646C40.3426 95.6069 41.1357 95.7224 41.9211 95.8076L41.8835 96.2621ZM49.0792 96.2572L49.0412 95.8027C49.8264 95.7166 50.6193 95.6 51.3981 95.4564L51.4616 95.9073C50.6743 96.0525 49.8728 96.1702 49.0792 96.2572ZM37.1425 95.3944C36.3653 95.1925 35.5833 94.9588 34.8183 94.6999L34.9314 94.2619C35.6881 94.5182 36.4618 94.7492 37.2307 94.9488L37.1425 95.3944ZM53.8194 95.383L53.7308 94.9379C54.5015 94.7365 55.2749 94.5043 56.0294 94.2477L56.143 94.6856C55.3802 94.945 54.5984 95.1796 53.8194 95.383ZM32.5378 93.8355C31.7878 93.52 31.0375 93.1725 30.3075 92.8026L30.4689 92.3851C31.191 92.7508 31.9332 93.0947 32.6752 93.4069L32.5378 93.8355ZM58.4224 93.8177L58.2845 93.3891C59.0219 93.078 59.7617 92.7343 60.4831 92.3677L60.6449 92.7852C59.9155 93.1558 59.1677 93.5033 58.4224 93.8177ZM28.1409 91.6072C27.4351 91.1853 26.7303 90.7304 26.0462 90.2553L26.253 89.8646C26.9299 90.335 27.6271 90.7848 28.3253 91.2022L28.1409 91.6072ZM62.8055 91.5905L62.621 91.1857C63.3176 90.7685 64.0132 90.3187 64.6882 89.8488L64.8954 90.2391C64.213 90.7141 63.5099 91.1686 62.8055 91.5905ZM24.0321 88.7527C23.3784 88.2302 22.7306 87.676 22.1064 87.106L22.355 86.7488C22.9726 87.313 23.6136 87.8611 24.2603 88.3781L24.0321 88.7527ZM66.9062 88.7364L66.6776 88.3622C67.3242 87.8446 67.9644 87.2965 68.5804 86.7329L68.8292 87.0897C68.2066 87.6593 67.5596 88.2133 66.9062 88.7364ZM20.2765 85.3217C19.6856 84.7073 19.1047 84.0635 18.5501 83.4085L18.8363 83.0905C19.385 83.7386 19.9599 84.3755 20.5446 84.9836L20.2765 85.3217ZM70.6572 85.3059L70.3889 84.9678C70.9722 84.361 71.5466 83.7236 72.0962 83.074L72.3824 83.3916C71.8271 84.0483 71.2465 84.6924 70.6572 85.3059ZM16.9337 81.3738C16.4163 80.6789 15.9118 79.9561 15.4342 79.2255L15.7534 78.9517C16.226 79.6747 16.7251 80.3899 17.237 81.0772L16.9337 81.3738ZM73.9984 81.3548L73.695 81.0587C74.2069 80.3707 74.7061 79.6546 75.1786 78.9307L75.4979 79.2041C75.0203 79.9358 74.5159 80.6595 73.9984 81.3548ZM14.0576 76.9723C13.6213 76.2071 13.2016 75.417 12.8099 74.6237L13.157 74.399C13.5444 75.1837 13.9598 75.9656 14.3915 76.7225L14.0576 76.9723ZM76.875 76.9475L76.5409 76.6982C76.9727 75.9397 77.388 75.1565 77.7757 74.37L78.123 74.5943C77.7313 75.3896 77.3113 76.1813 76.875 76.9475ZM11.6964 72.1889C11.3494 71.3669 11.0217 70.5222 10.7222 69.6779L11.0916 69.5061C11.3879 70.3411 11.7122 71.1769 12.0554 71.99L11.6964 72.1889ZM79.2369 72.1533L78.8778 71.9548C79.2209 71.1403 79.5453 70.3023 79.842 69.4633L80.2115 69.6346C79.9117 70.4827 79.5838 71.3301 79.2369 72.1533ZM9.88991 67.097C9.63768 66.2295 9.40726 65.3421 9.20497 64.4594L9.59066 64.3435C9.79071 65.2166 10.0187 66.0946 10.2682 66.9525L9.88991 67.097ZM81.0423 67.0486L80.6638 66.905C80.9118 66.0479 81.139 65.1697 81.3386 64.2949L81.7245 64.4104C81.5226 65.2948 81.293 66.1824 81.0423 67.0486ZM8.67004 61.7775C8.51769 60.8815 8.3888 59.9678 8.28688 59.0617L8.68231 59.0033C8.78316 59.8998 8.91069 60.8037 9.06138 61.6901L8.67004 61.7775ZM82.2566 61.7274L81.8652 61.6408C82.0148 60.7546 82.1415 59.8503 82.2414 58.9531L82.637 59.0111C82.536 59.9179 82.4079 60.8318 82.2566 61.7274ZM8.05636 56.3236C8.00525 55.4133 7.97887 54.488 7.978 53.5735L8.37673 53.573C8.37761 54.478 8.4037 55.3934 8.45432 56.2942L8.05636 56.3236ZM82.8648 56.2726L82.4669 56.2436C82.5165 55.3437 82.5416 54.4283 82.5416 53.5231L82.5414 53.423H82.9402L82.9404 53.5215C82.9404 54.4379 82.9149 55.3629 82.8648 56.2726ZM8.44877 50.8523L8.05081 50.8242C8.10026 49.9121 8.17591 48.9907 8.27569 48.0852L8.67131 48.1423C8.5725 49.0384 8.49764 49.95 8.44877 50.8523ZM82.4614 50.7025C82.4096 49.7997 82.3319 48.8883 82.2305 47.9936L82.6257 47.9347C82.7283 48.839 82.807 49.76 82.8594 50.6726L82.4614 50.7025ZM9.04474 45.4546L8.65321 45.3683C8.80361 44.4719 8.98177 43.5691 9.18249 42.6848L9.56837 42.7997C9.36978 43.6746 9.19358 44.5677 9.04474 45.4546ZM81.8483 45.3073C81.6964 44.42 81.5173 43.5275 81.3164 42.6545L81.7019 42.5381C81.9052 43.4204 82.086 44.3225 82.2396 45.2195L81.8483 45.3073ZM10.2407 40.1889L9.86197 40.0457C10.1122 39.1779 10.3909 38.3074 10.6902 37.4583L11.0599 37.6293C10.7638 38.4693 10.4882 39.3305 10.2407 40.1889ZM80.6365 40.0465C80.3861 39.1893 80.1083 38.3306 79.8106 37.4942L80.1798 37.3218C80.4808 38.1672 80.7617 39.0352 81.0146 39.9016L80.6365 40.0465ZM12.0217 35.1361L11.6623 34.9381C12.0082 34.1145 12.3822 33.2927 12.7738 32.4957L13.1214 32.7198C12.7338 33.5082 12.3639 34.3212 12.0217 35.1361ZM78.8443 35.0115C78.5009 34.2006 78.1296 33.3906 77.7402 32.6042L78.0872 32.3789C78.4807 33.1737 78.856 33.9925 79.203 34.8124L78.8443 35.0115ZM14.3538 30.3897L14.0195 30.1406C14.4544 29.375 14.9169 28.6151 15.394 27.8822L15.7137 28.1551C15.2416 28.8804 14.784 29.6321 14.3538 30.3897ZM76.5033 30.2822C76.0719 29.5274 75.613 28.778 75.1391 28.0548L75.458 27.7807C75.937 28.5117 76.4009 29.2692 76.837 30.032L76.5033 30.2822ZM17.1952 26.0253L16.8915 25.7296C17.4079 25.0337 17.9508 24.3477 18.5051 23.6908L18.7919 24.0082C18.2434 24.6581 17.7063 25.3369 17.1952 26.0253ZM73.6532 25.9312C73.1405 25.2446 72.6016 24.5679 72.0518 23.9199L72.3376 23.6016C72.8935 24.2565 73.438 24.9405 73.9561 25.6344L73.6532 25.9312ZM20.4971 22.1118L20.2286 21.7742C20.8187 21.1586 21.4331 20.5574 22.0548 19.9877L22.304 20.3442C21.6888 20.908 21.0809 21.5028 20.4971 22.1118ZM70.3414 22.029C69.7567 21.4227 69.1471 20.8297 68.5292 20.2666L68.7776 19.9092C69.402 20.4784 70.0182 21.0776 70.6089 21.6904L70.3414 22.029ZM24.2051 18.7124L23.9763 18.3384C24.6288 17.8147 25.3047 17.3083 25.9855 16.8333L26.1929 17.2233C25.5195 17.6933 24.8506 18.1943 24.2051 18.7124ZM66.6223 18.6397C65.9732 18.1222 65.3023 17.6229 64.6281 17.1556L64.8345 16.7648C65.5159 17.2371 66.1942 17.7417 66.8501 18.2648L66.6223 18.6397ZM28.259 15.8835L28.0739 15.479C28.7788 15.0555 29.5054 14.6525 30.2333 14.2813L30.3954 14.6986C29.6753 15.0657 28.9565 15.4645 28.259 15.8835ZM62.5544 15.8208C61.8541 15.4034 61.1326 15.0065 60.4096 14.6412L60.5706 14.2233C61.3013 14.5925 62.0307 14.9937 62.7385 15.4156L62.5544 15.8208ZM32.5931 13.674L32.4546 13.2456C33.2023 12.9289 33.9689 12.6358 34.7333 12.3748L34.8471 12.8126C34.091 13.0707 33.3326 13.3606 32.5931 13.674ZM58.2022 13.6222C57.4611 13.3117 56.7018 13.0249 55.9454 12.77L56.058 12.3317C56.8225 12.5894 57.5901 12.8794 58.3393 13.1934L58.2022 13.6222ZM37.145 12.1196L37.0561 11.6744C37.8318 11.4708 38.6249 11.2934 39.4133 11.1468L39.4772 11.5977C38.6972 11.7427 37.9125 11.9182 37.145 12.1196ZM53.6453 12.0863C52.8764 11.8879 52.0912 11.7155 51.3115 11.5739L51.374 11.1227C52.1621 11.2659 52.9558 11.4402 53.7329 11.6408L53.6453 12.0863ZM41.8338 11.2482L41.7952 10.7937C42.5869 10.7057 43.3932 10.6456 44.1918 10.6151L44.205 11.0716C43.4148 11.1018 42.6171 11.1612 41.8338 11.2482ZM48.9538 11.234C48.1694 11.15 47.3713 11.0938 46.5821 11.067L46.594 10.6105C47.3916 10.6377 48.1981 10.6944 48.9909 10.7793L48.9538 11.234Z" fill="#D0CDE1"/>
<path d="M44.0635 22.466C49.2386 22.466 53.4339 17.6606 53.4339 11.733C53.4339 5.80532 49.2386 1 44.0635 1C38.8885 1 34.6932 5.80532 34.6932 11.733C34.6932 17.6606 38.8885 22.466 44.0635 22.466Z" fill="#6C63FF"/>
<path d="M80.3485 51.6962C85.5236 51.6962 89.7189 46.8909 89.7189 40.9632C89.7189 35.0356 85.5236 30.2302 80.3485 30.2302C75.1735 30.2302 70.9782 35.0356 70.9782 40.9632C70.9782 46.8909 75.1735 51.6962 80.3485 51.6962Z" fill="#6C63FF"/>
<path d="M68.9846 96.455C74.1596 96.455 78.3549 91.6497 78.3549 85.722C78.3549 79.7944 74.1596 74.989 68.9846 74.989C63.8095 74.989 59.6143 79.7944 59.6143 85.722C59.6143 91.6497 63.8095 96.455 68.9846 96.455Z" fill="#6C63FF"/>
<path d="M23.9273 98.2819C29.1024 98.2819 33.2977 93.4766 33.2977 87.5489C33.2977 81.6213 29.1024 76.8159 23.9273 76.8159C18.7523 76.8159 14.557 81.6213 14.557 87.5489C14.557 93.4766 18.7523 98.2819 23.9273 98.2819Z" fill="#6C63FF"/>
<path d="M10.3703 51.6962C15.5454 51.6962 19.7406 46.8909 19.7406 40.9632C19.7406 35.0356 15.5454 30.2302 10.3703 30.2302C5.19523 30.2302 1 35.0356 1 40.9632C1 46.8909 5.19523 51.6962 10.3703 51.6962Z" fill="#6C63FF"/>
<path d="M48.079 10.8773H44.8106C44.5134 10.8773 44.2284 10.742 44.0182 10.5013C43.8081 10.2606 43.69 9.93414 43.69 9.59372V5.85C43.69 5.83596 43.6876 5.82205 43.6829 5.80907C43.6782 5.79609 43.6713 5.7843 43.6627 5.77437C43.654 5.76444 43.6437 5.75656 43.6324 5.75118C43.621 5.74581 43.6089 5.74304 43.5966 5.74304H41.4488C41.0525 5.74304 40.6725 5.92335 40.3923 6.2443C40.1121 6.56525 39.9547 7.00056 39.9547 7.45445V16.0115C39.9547 16.4654 40.1121 16.9007 40.3923 17.2217C40.6725 17.5426 41.0525 17.7229 41.4488 17.7229H46.6783C47.0745 17.7229 47.4546 17.5426 47.7348 17.2217C48.015 16.9007 48.1724 16.4654 48.1724 16.0115V10.9842C48.1724 10.9702 48.17 10.9563 48.1653 10.9433C48.1606 10.9303 48.1537 10.9185 48.145 10.9086C48.1364 10.8987 48.1261 10.8908 48.1147 10.8854C48.1034 10.88 48.0913 10.8773 48.079 10.8773ZM45.9312 15.1558H42.1959C42.0968 15.1558 42.0018 15.1107 41.9317 15.0305C41.8617 14.9503 41.8223 14.8414 41.8223 14.7279C41.8223 14.6145 41.8617 14.5057 41.9317 14.4254C42.0018 14.3452 42.0968 14.3001 42.1959 14.3001H45.9312C46.0303 14.3001 46.1253 14.3452 46.1953 14.4254C46.2654 14.5057 46.3047 14.6145 46.3047 14.7279C46.3047 14.8414 46.2654 14.9503 46.1953 15.0305C46.1253 15.1107 46.0303 15.1558 45.9312 15.1558ZM45.9312 13.0165H42.1959C42.0968 13.0165 42.0018 12.9715 41.9317 12.8912C41.8617 12.811 41.8223 12.7022 41.8223 12.5887C41.8223 12.4752 41.8617 12.3664 41.9317 12.2861C42.0018 12.2059 42.0968 12.1608 42.1959 12.1608H45.9312C46.0303 12.1608 46.1253 12.2059 46.1953 12.2861C46.2654 12.3664 46.3047 12.4752 46.3047 12.5887C46.3047 12.7022 46.2654 12.811 46.1953 12.8912C46.1253 12.9715 46.0303 13.0165 45.9312 13.0165Z" fill="white"/>
<path d="M47.874 9.93038L44.5167 6.08478C44.5102 6.07734 44.5019 6.07229 44.4928 6.07024C44.4838 6.0682 44.4744 6.06926 44.4659 6.07329C44.4574 6.07731 44.4501 6.08413 44.445 6.09289C44.4399 6.10164 44.4371 6.11194 44.4371 6.12248V9.59371C44.4371 9.70718 44.4764 9.816 44.5465 9.89624C44.6165 9.97648 44.7115 10.0216 44.8106 10.0216H47.8411C47.8503 10.0215 47.8593 10.0184 47.867 10.0125C47.8746 10.0066 47.8806 9.99826 47.8841 9.98851C47.8876 9.97877 47.8885 9.96805 47.8867 9.95771C47.8849 9.94736 47.8805 9.93786 47.874 9.93038Z" fill="white"/>
<path d="M70.3399 83.6077C70.225 83.6078 70.1137 83.6535 70.0249 83.737C69.9361 83.8205 69.8754 83.9367 69.853 84.0658C69.8307 84.1949 69.8481 84.3288 69.9023 84.4449C69.9565 84.5609 70.0441 84.6518 70.1503 84.7021C70.2565 84.7524 70.3746 84.759 70.4845 84.7207C70.5944 84.6825 70.6894 84.6017 70.7531 84.4923C70.8169 84.3829 70.8456 84.2515 70.8343 84.1205C70.823 83.9896 70.7724 83.8671 70.6911 83.7741C70.645 83.7213 70.5902 83.6794 70.5299 83.6509C70.4697 83.6223 70.4051 83.6076 70.3399 83.6077Z" fill="white"/>
<path d="M73.1045 81.3331V81.3312C73.0887 81.2522 73.0541 81.1798 73.0043 81.1222C72.9546 81.0646 72.8918 81.024 72.823 81.0051C72.2685 80.8502 71.3963 81.0154 70.4297 81.4586C69.5002 81.8725 68.6498 82.4893 67.9258 83.2748C67.728 83.5001 67.5443 83.741 67.376 83.9958C67.0041 83.9663 66.6313 84.0349 66.2862 84.1963C65.2119 84.7378 64.9051 86.1237 64.8234 86.6927C64.8116 86.7736 64.8162 86.8565 64.837 86.9349C64.8577 87.0134 64.8939 87.0853 64.9429 87.1451C64.9918 87.2049 65.0521 87.251 65.1192 87.2797C65.1862 87.3084 65.2581 87.3191 65.3293 87.3108H65.3317L66.5285 87.1612C66.5299 87.1786 66.5316 87.1946 66.5329 87.2093C66.5483 87.3764 66.6133 87.5323 66.7171 87.6509L67.3012 88.3203C67.4046 88.4393 67.5407 88.5139 67.6865 88.5315L67.7265 88.5364L67.5962 89.9054V89.9082C67.59 89.9778 67.5957 90.0481 67.6132 90.1152C67.6306 90.1822 67.6594 90.2447 67.6979 90.299C67.7365 90.3533 67.7839 90.3984 67.8377 90.4316C67.8914 90.4649 67.9503 90.4858 68.0111 90.493C68.0254 90.4947 68.0397 90.4956 68.0541 90.4958C68.08 90.4958 68.1058 90.4934 68.1313 90.4885C68.6309 90.3965 69.8403 90.0493 70.3118 88.8122C70.4515 88.4182 70.5116 87.9932 70.4876 87.5688C70.711 87.3765 70.9221 87.166 71.1192 86.9391C71.8046 86.1176 72.3437 85.1511 72.7065 84.0936C73.0915 82.999 73.2364 81.9925 73.1045 81.3331ZM71.1126 85.0601C70.9597 85.2353 70.7649 85.3547 70.5528 85.4032C70.3407 85.4516 70.1209 85.4269 69.921 85.3323C69.7212 85.2376 69.5503 85.0772 69.4301 84.8713C69.3098 84.6654 69.2456 84.4233 69.2455 84.1755C69.2454 83.9278 69.3094 83.6856 69.4295 83.4796C69.5495 83.2736 69.7202 83.1129 69.92 83.018C70.1198 82.9231 70.3396 82.8982 70.5517 82.9464C70.7639 82.9946 70.9587 83.1137 71.1117 83.2888L71.1126 83.2897C71.3175 83.521 71.4339 83.836 71.436 84.1655C71.4382 84.495 71.326 84.812 71.1241 85.0468L71.1126 85.0601Z" fill="white"/>
<path d="M67.2342 88.5019C67.1622 88.4916 67.0894 88.5119 67.0295 88.5588C66.9106 88.6519 66.7912 88.744 66.6706 88.8337C66.6183 88.8722 66.5561 88.8896 66.4942 88.8828C66.4322 88.8761 66.374 88.8457 66.329 88.7965C66.2839 88.7473 66.2546 88.6823 66.2457 88.6117C66.2368 88.5411 66.2488 88.4692 66.2799 88.4074L66.506 87.9599C66.5383 87.9058 66.5563 87.8421 66.5578 87.7765C66.5593 87.7109 66.5443 87.6462 66.5145 87.5902C66.4847 87.5342 66.4415 87.4892 66.3899 87.4606C66.3384 87.432 66.2807 87.421 66.2239 87.429C65.973 87.4654 65.7398 87.5963 65.561 87.8011C65.4929 87.8793 65.2858 88.1168 65.1744 89.0214C65.1426 89.2813 65.1226 89.5428 65.1144 89.8051C65.1134 89.8498 65.1201 89.8944 65.1342 89.9362C65.1482 89.978 65.1693 90.0162 65.1962 90.0486C65.2231 90.0811 65.2554 90.1072 65.2911 90.1254C65.3268 90.1436 65.3653 90.1535 65.4044 90.1547C65.407 90.1547 65.4096 90.1548 65.4121 90.1548H65.4196C65.6487 90.1455 65.8772 90.1227 66.1043 90.0866C66.8945 89.9587 67.1017 89.7213 67.1698 89.6433C67.3495 89.4384 67.4635 89.17 67.4934 88.8816C67.5029 88.7919 67.481 88.7015 67.4324 88.6303C67.3838 88.5591 67.3125 88.5129 67.2342 88.5019Z" fill="white"/>
<path d="M20.7025 93.3812H20.0236C19.8886 93.3812 19.7591 93.3198 19.6636 93.2104C19.5681 93.101 19.5144 92.9527 19.5144 92.798V89.2986C19.5144 89.1439 19.5681 88.9956 19.6636 88.8862C19.7591 88.7768 19.8886 88.7154 20.0236 88.7154H20.7025C20.8376 88.7154 20.9671 88.7768 21.0626 88.8862C21.1581 88.9956 21.2117 89.1439 21.2117 89.2986V92.798C21.2117 92.9527 21.1581 93.101 21.0626 93.2104C20.9671 93.3198 20.8376 93.3812 20.7025 93.3812Z" fill="white"/>
<path d="M25.4549 93.3812H24.776C24.6409 93.3812 24.5114 93.3198 24.4159 93.2104C24.3204 93.101 24.2668 92.9527 24.2668 92.798V86.9657C24.2668 86.811 24.3204 86.6627 24.4159 86.5533C24.5114 86.4439 24.6409 86.3825 24.776 86.3825H25.4549C25.5899 86.3825 25.7194 86.4439 25.8149 86.5533C25.9104 86.6627 25.9641 86.811 25.9641 86.9657V92.798C25.9641 92.9527 25.9104 93.101 25.8149 93.2104C25.7194 93.3198 25.5899 93.3812 25.4549 93.3812Z" fill="white"/>
<path d="M27.8311 93.3812H27.1522C27.0171 93.3812 26.8876 93.3198 26.7921 93.2104C26.6967 93.101 26.643 92.9527 26.643 92.798V84.2439C26.643 84.0893 26.6967 83.9409 26.7921 83.8315C26.8876 83.7222 27.0171 83.6607 27.1522 83.6607H27.8311C27.9661 83.6607 28.0957 83.7222 28.1912 83.8315C28.2866 83.9409 28.3403 84.0893 28.3403 84.2439V92.798C28.3403 92.9527 28.2866 93.101 28.1912 93.2104C28.0957 93.3198 27.9661 93.3812 27.8311 93.3812Z" fill="white"/>
<path d="M23.0787 93.3812H22.3998C22.2648 93.3812 22.1353 93.3198 22.0398 93.2104C21.9443 93.101 21.8906 92.9527 21.8906 92.798V82.2998C21.8906 82.1452 21.9443 81.9968 22.0398 81.8874C22.1353 81.7781 22.2648 81.7166 22.3998 81.7166H23.0787C23.2138 81.7166 23.3433 81.7781 23.4388 81.8874C23.5343 81.9968 23.5879 82.1452 23.5879 82.2998V92.798C23.5879 92.8746 23.5747 92.9504 23.5491 93.0212C23.5236 93.092 23.486 93.1562 23.4388 93.2104C23.3915 93.2646 23.3354 93.3075 23.2736 93.3368C23.2118 93.3661 23.1456 93.3812 23.0787 93.3812Z" fill="white"/>
<path d="M80.7974 40.6821L80.3124 40.1263C80.2013 39.999 80.0507 39.9273 79.8936 39.9268C79.7364 39.9264 79.5855 39.9972 79.4738 40.1238L76.1016 43.6886C75.9778 43.8141 75.902 43.9903 75.8907 44.1792C75.8871 44.2731 75.9005 44.3667 75.9299 44.4544C75.9594 44.542 76.0043 44.6218 76.0618 44.6887L76.7863 45.5277L76.7876 45.5292C76.8996 45.657 77.051 45.729 77.2091 45.7296H77.231C77.3129 45.7243 77.3931 45.7006 77.4669 45.6598C77.5408 45.6191 77.6069 45.562 77.6615 45.4919L80.7954 41.6469C80.9074 41.5198 80.9706 41.3469 80.9713 41.1663C80.972 40.9857 80.91 40.8122 80.799 40.684L80.7974 40.6821Z" fill="white"/>
<path d="M84.6956 39.5588L84.6899 39.5522L84.0533 38.8305C84.016 38.7879 83.9717 38.7542 83.923 38.7313C83.8742 38.7085 83.8221 38.6969 83.7694 38.6973C83.6841 38.6974 83.601 38.7282 83.5318 38.7854C83.5318 38.7762 83.5329 38.7673 83.5335 38.7594C83.5592 38.573 83.5248 38.3823 83.4369 38.2227C83.2966 38.0062 83.1426 37.8018 82.9762 37.6112L82.9747 37.6095C82.5093 37.0981 81.9624 36.6939 81.3637 36.4192C81.0508 36.2721 80.7158 36.1965 80.3776 36.1968C79.9398 36.1923 79.5144 36.363 79.1747 36.6794C79.0781 36.7852 78.9899 36.9007 78.9113 37.0245C78.8738 37.0839 78.854 37.1556 78.8548 37.2289C78.8557 37.3022 78.8772 37.3732 78.9161 37.4314C78.955 37.4896 79.0093 37.5318 79.0709 37.5518C79.1324 37.5718 79.198 37.5686 79.2578 37.5425C79.3099 37.5202 79.3631 37.5015 79.4172 37.4865C79.5298 37.4592 79.6452 37.451 79.7599 37.462C79.9977 37.4905 80.2255 37.5862 80.4229 37.7406C80.5336 37.8473 80.6217 37.9815 80.6804 38.133C80.7392 38.2845 80.7671 38.4493 80.7621 38.6149C80.6797 38.884 80.5536 39.1329 80.3906 39.3486C80.3472 39.4142 80.3259 39.4956 80.3309 39.5778C80.3358 39.66 80.3666 39.7373 80.4175 39.7954L81.0568 40.5276C81.1105 40.5893 81.1828 40.625 81.2588 40.6275C81.3349 40.63 81.4088 40.5989 81.4655 40.5408C81.6462 40.3559 81.9215 40.0772 82.0178 40.0089C82.1 39.9458 82.1932 39.9037 82.2908 39.8854C82.3636 39.8773 82.4369 39.895 82.5006 39.9361C82.5009 39.9397 82.5006 39.9434 82.4996 39.9469C82.4986 39.9504 82.497 39.9536 82.4948 39.9563L82.461 39.9931L82.4554 39.9991C82.3803 40.0848 82.338 40.2012 82.3378 40.3226C82.3376 40.4441 82.3795 40.5606 82.4544 40.6467L82.4564 40.6489L83.0928 41.3705C83.1301 41.413 83.1744 41.4467 83.2231 41.4695C83.2718 41.4923 83.324 41.5039 83.3767 41.5035C83.4824 41.5036 83.5839 41.4563 83.6594 41.3715L84.6904 40.205C84.694 40.201 84.6975 40.1968 84.7008 40.1925C84.77 40.1056 84.8079 39.992 84.8069 39.8745C84.806 39.7569 84.7662 39.6442 84.6956 39.5588Z" fill="white"/>
<path d="M11.8581 40.3242C11.7845 40.3242 11.7126 40.2992 11.6514 40.2524C11.5903 40.2056 11.5426 40.139 11.5145 40.0612C11.4863 39.9833 11.4789 39.8977 11.4933 39.815C11.5076 39.7324 11.5431 39.6565 11.5951 39.5969L12.4479 38.62L11.5951 37.6432C11.5253 37.5633 11.4861 37.455 11.4861 37.342C11.4861 37.229 11.5253 37.1206 11.5951 37.0407C11.6648 36.9608 11.7594 36.9159 11.8581 36.9159C11.9567 36.9159 12.0513 36.9608 12.1211 37.0407L13.2369 38.3188C13.2714 38.3584 13.2988 38.4053 13.3175 38.457C13.3362 38.5087 13.3458 38.5641 13.3458 38.62C13.3458 38.676 13.3362 38.7314 13.3175 38.7831C13.2988 38.8348 13.2714 38.8817 13.2369 38.9213L12.1211 40.1994C12.0866 40.239 12.0456 40.2704 12.0004 40.2918C11.9553 40.3133 11.9069 40.3242 11.8581 40.3242Z" fill="white"/>
<path d="M5.90704 41.6023C5.85819 41.6023 5.80983 41.5912 5.7647 41.5698C5.71957 41.5484 5.67857 41.517 5.64403 41.4775C5.60949 41.4379 5.5821 41.391 5.56341 41.3393C5.54471 41.2876 5.53509 41.2322 5.5351 41.1762V40.7502C5.53801 40.0735 5.77392 39.4255 6.19156 38.9468C6.6092 38.4682 7.17485 38.1977 7.76563 38.194H12.6019C12.7006 38.194 12.7952 38.2389 12.865 38.3188C12.9347 38.3987 12.9739 38.5071 12.9739 38.6201C12.9739 38.733 12.9347 38.8414 12.865 38.9213C12.7952 39.0012 12.7006 39.0461 12.6019 39.0461H7.76673C7.37269 39.0488 6.99545 39.2293 6.71692 39.5486C6.43838 39.8679 6.28102 40.3001 6.27898 40.7515V41.1762C6.27898 41.2322 6.26936 41.2876 6.25067 41.3393C6.23197 41.3909 6.20458 41.4379 6.17004 41.4775C6.1355 41.517 6.0945 41.5484 6.04937 41.5698C6.00425 41.5912 5.95588 41.6023 5.90704 41.6023Z" fill="white"/>
<path d="M8.88254 45.0105C8.83369 45.0106 8.7853 44.9996 8.74017 44.9782C8.69504 44.9567 8.65404 44.9253 8.61954 44.8857L7.50373 43.6076C7.46918 43.568 7.44179 43.5211 7.42309 43.4694C7.4044 43.4177 7.39478 43.3623 7.39478 43.3064C7.39478 43.2504 7.4044 43.195 7.42309 43.1433C7.44179 43.0916 7.46918 43.0447 7.50373 43.0051L8.61954 41.727C8.68932 41.6473 8.78389 41.6025 8.88247 41.6025C8.98105 41.6026 9.07559 41.6475 9.1453 41.7273C9.215 41.8072 9.25418 41.9154 9.25423 42.0284C9.25427 42.1413 9.21518 42.2496 9.14553 42.3295L8.29274 43.3064L9.14553 44.2832C9.19755 44.3428 9.23297 44.4187 9.24732 44.5013C9.26167 44.584 9.2543 44.6696 9.22615 44.7475C9.198 44.8253 9.15034 44.8919 9.08917 44.9387C9.02801 44.9855 8.9561 45.0105 8.88254 45.0105Z" fill="white"/>
<path d="M8.13866 43.7324C8.04001 43.7324 7.94541 43.6875 7.87566 43.6076C7.80591 43.5277 7.76672 43.4194 7.76672 43.3064C7.76672 43.1934 7.80591 43.085 7.87566 43.0051C7.94541 42.9252 8.04001 42.8803 8.13866 42.8803H12.9739C13.3679 42.8777 13.7451 42.6971 14.0237 42.3778C14.3022 42.0585 14.4596 41.6263 14.4616 41.1749V40.7502C14.4616 40.6372 14.5008 40.5288 14.5706 40.4489C14.6403 40.3691 14.7349 40.3242 14.8336 40.3242C14.9322 40.3242 15.0268 40.3691 15.0966 40.4489C15.1663 40.5288 15.2055 40.6372 15.2055 40.7502V41.1762C15.2026 41.8529 14.9667 42.501 14.549 42.9796C14.1314 43.4582 13.5657 43.7287 12.975 43.7324L8.13866 43.7324Z" fill="white"/>
</g>
<defs>
<clipPath id="clip0_1_87">
<rect width="147.7" height="138.95" fill="white" transform="translate(1 1)"/>
</clipPath>
</defs>
</svg>
