<svg width="145" height="151" viewBox="0 0 145 151" fill="none" xmlns="http://www.w3.org/2000/svg">
<path d="M130.907 28.7187C139.107 38.8187 138.307 57.2187 139.907 72.4187C141.607 87.6187 145.607 99.6187 144.807 112.419C144.007 125.319 138.307 139.019 128.107 145.419C117.807 151.719 103.007 150.719 88.6073 150.119C74.2073 149.619 60.2073 149.519 50.2073 143.119C40.1073 136.619 33.9073 123.919 26.9073 109.719C19.8073 95.6187 11.8073 79.9187 16.3073 68.9187C20.8073 58.0187 37.8073 51.8187 51.9073 43.7187C66.0073 35.5187 77.1073 25.3187 91.3073 21.1187C105.407 16.9187 122.707 18.7187 130.907 28.7187Z" fill="#9AAAE3"/>
<g clip-path="url(#clip0_1_147)">
<path d="M44.9814 136C69.8239 136 89.9627 134.733 89.9627 133.171C89.9627 131.608 69.8239 130.342 44.9814 130.342C20.1388 130.342 0 131.608 0 133.171C0 134.733 20.1388 136 44.9814 136Z" fill="#E6E6E6"/>
<path d="M62.9142 79.5374C63.3557 77.2652 65.6409 75.93 67.9195 75.3956C70.5203 74.7856 73.2925 74.8607 75.9393 75.1358C81.2691 75.6898 86.5026 77.187 91.9113 76.9549C96.614 76.7379 101.172 75.3936 105.131 73.0563C109.112 70.7106 112.321 67.4144 114.411 63.5222C116.516 59.6051 117.45 55.2463 117.116 50.8906C117.072 50.3491 117.005 49.8099 116.922 49.2723C116.863 48.8876 116.225 49.0512 116.284 49.4334C116.928 53.764 116.263 58.1735 114.361 62.1815C112.494 66.1487 109.46 69.5621 105.599 72.0405C101.749 74.5047 97.2501 75.9797 92.5684 76.3125C87.2287 76.6699 82.0404 75.2633 76.793 74.6261C74.1427 74.3043 71.4397 74.1844 68.7937 74.6063C66.4499 74.9799 64.0453 75.9406 62.8421 77.9307C62.568 78.3807 62.3768 78.8691 62.2763 79.3762C62.2022 79.7577 62.8396 79.9215 62.9142 79.5374Z" fill="#3F3D56"/>
<path d="M114.438 50.5201C129.66 50.5201 142 39.2108 142 25.26C142 11.3093 129.66 0 114.438 0C99.2157 0 86.8758 11.3093 86.8758 25.26C86.8758 39.2108 99.2157 50.5201 114.438 50.5201Z" fill="#6C63FF"/>
<path d="M104.075 26.6746C107.971 26.6746 111.13 23.7794 111.13 20.208C111.13 16.6366 107.971 13.7415 104.075 13.7415C100.178 13.7415 97.0186 16.6366 97.0186 20.208C97.0186 23.7794 100.178 26.6746 104.075 26.6746Z" fill="white"/>
<path d="M106.285 33.1412C106.343 34.1227 106.809 35.0467 107.587 35.7232C108.365 36.3997 109.396 36.7774 110.469 36.7786H121.935C123.007 36.7774 124.039 36.3997 124.817 35.7232C125.595 35.0467 126.061 34.1227 126.118 33.1412H106.285Z" fill="white"/>
<path d="M101.429 25.7652C103.499 25.7652 105.177 24.2272 105.177 22.3299C105.177 20.4326 103.499 18.8945 101.429 18.8945C99.3584 18.8945 97.6801 20.4326 97.6801 22.3299C97.6801 24.2272 99.3584 25.7652 101.429 25.7652Z" fill="#3F3D56"/>
<path d="M102.752 21.7236C103.239 21.7236 103.634 21.3617 103.634 20.9153C103.634 20.4689 103.239 20.107 102.752 20.107C102.264 20.107 101.87 20.4689 101.87 20.9153C101.87 21.3617 102.264 21.7236 102.752 21.7236Z" fill="white"/>
<path d="M127.006 26.7756C130.903 26.7756 134.062 23.8805 134.062 20.3091C134.062 16.7377 130.903 13.8425 127.006 13.8425C123.109 13.8425 119.95 16.7377 119.95 20.3091C119.95 23.8805 123.109 26.7756 127.006 26.7756Z" fill="white"/>
<path d="M124.36 25.7652C126.43 25.7652 128.109 24.2272 128.109 22.3299C128.109 20.4326 126.43 18.8945 124.36 18.8945C122.29 18.8945 120.612 20.4326 120.612 22.3299C120.612 24.2272 122.29 25.7652 124.36 25.7652Z" fill="#3F3D56"/>
<path d="M125.683 21.7236C126.17 21.7236 126.565 21.3617 126.565 20.9153C126.565 20.4689 126.17 20.107 125.683 20.107C125.196 20.107 124.801 20.4689 124.801 20.9153C124.801 21.3617 125.196 21.7236 125.683 21.7236Z" fill="white"/>
<path d="M114.879 29.9079C116.34 29.9079 117.525 28.8222 117.525 27.4829C117.525 26.1436 116.34 25.058 114.879 25.058C113.418 25.058 112.233 26.1436 112.233 27.4829C112.233 28.8222 113.418 29.9079 114.879 29.9079Z" fill="#3F3D56"/>
<path d="M118.848 49.1055H113.997V52.5409H118.848V49.1055Z" fill="#6C63FF"/>
<path d="M49.2285 116.624C49.2285 116.624 52.3411 124.979 51.0071 128.035L55.0091 131.295L57.4547 128.442C57.4547 128.442 54.7868 125.997 55.0091 124.163C55.2314 122.33 55.4537 115.809 55.4537 115.809L49.2285 116.624Z" fill="#FFB9B9"/>
<path d="M64.1234 132.924C63.9416 133.021 63.7682 133.114 63.6088 133.198H49.8093C49.6813 133.131 49.5787 133.03 49.5147 132.908C49.4508 132.787 49.4287 132.65 49.4513 132.517C49.5156 132.214 49.6806 131.599 49.8848 130.892C50.3685 129.218 51.0788 127.027 51.2326 127.26L51.2336 127.261L51.2346 127.261L51.2352 127.262L51.2353 127.263C51.4507 127.627 51.8953 129.257 53.0082 129.054C54.1211 128.849 55.8995 128.442 55.8995 128.442C55.8995 128.442 55.2648 127.135 55.8716 126.607C56.0021 126.496 56.1674 126.425 56.3441 126.405C57.678 126.202 57.678 128.034 57.678 128.034L62.5686 130.479C62.9902 130.586 63.4017 130.724 63.799 130.892C64.7917 131.317 65.7732 132.045 64.1234 132.924Z" fill="#2F2E41"/>
<path d="M40.3353 113.568L34.5548 119.885L32.9984 123.145L34.9994 124.571L36.778 123.96C36.778 123.96 38.3344 120.292 39.8907 119.681C41.447 119.069 45.2266 114.994 45.2266 114.994L40.3353 113.568Z" fill="#FFB9B9"/>
<path d="M52.4523 108.721L49.5042 113.729L47.3921 117.315C46.7162 117.684 45.8157 117.678 44.8464 117.46C44.3947 117.354 43.9518 117.218 43.5213 117.054C40.8756 116.062 38.192 114.092 38.192 114.092L43.2701 108.276L44.9286 106.379L45.3222 105.927L47.2186 106.671L50.5647 107.981L52.4523 108.721Z" fill="#2F2E41"/>
<path d="M39.295 65.4723L36.9401 74.3253L39.3641 85.6833C39.3641 85.6833 39.4238 90.3262 41.6452 89.9739C43.8665 89.6215 41.5386 84.9389 41.5386 84.9389L40.452 75.626L43.926 66.4253C44.2074 65.68 43.852 64.88 43.0369 64.4237C41.6614 63.6538 39.7067 64.2016 39.295 65.4723Z" fill="#FFB9B9"/>
<path d="M47.561 57.8396L45.5601 63.5449L41.7805 61.7111C41.7805 61.7111 43.3368 57.6359 43.3368 57.0246C43.3368 56.4133 47.561 57.8396 47.561 57.8396Z" fill="#FFB9B9"/>
<path d="M46.0047 60.081C48.5833 60.081 50.6737 58.1652 50.6737 55.802C50.6737 53.4388 48.5833 51.5231 46.0047 51.5231C43.4262 51.5231 41.3358 53.4388 41.3358 55.802C41.3358 58.1652 43.4262 60.081 46.0047 60.081Z" fill="#FFB9B9"/>
<path d="M47.2275 64.8694L46.3382 64.0543L46.1159 63.0355C46.1159 63.0355 43.2256 59.5716 40.78 60.7942C40.0157 61.1762 39.4469 62.0557 39.0259 63.0845C37.9539 65.7732 38.0539 68.7373 39.3052 71.3602L43.2256 79.7438L52.1188 78.9288L50.5625 73.631C50.5625 73.631 52.1188 70.3709 49.2285 68.1295L47.2275 64.8694Z" fill="#6C63FF"/>
<path opacity="0.3" d="M52.4523 108.721L49.5042 113.729L47.3921 117.315C46.7162 117.684 45.8158 117.678 44.8464 117.46C44.6774 116.429 45.6868 110.98 44.8931 106.538L44.9287 106.379L45.3222 105.927L47.2187 106.671L50.5647 107.981L52.4523 108.721Z" fill="black"/>
<path d="M52.4523 78.4194C52.4523 78.4194 46.6717 75.1592 42.6698 79.2344L42.8921 80.457C42.8921 80.457 39.5572 83.9209 41.5581 91.2563C43.5591 98.5916 46.6717 117.745 46.6717 117.745C46.6717 117.745 54.0086 118.153 57.3435 115.911C57.3435 115.911 56.2319 90.645 52.4523 88.1999V78.4194Z" fill="#2F2E41"/>
<path d="M40.3986 67.0707L46.6717 74.1404L58.0105 79.2344C58.0105 79.2344 62.083 81.9967 63.1191 80.1618C64.1552 78.3269 58.6775 77.1968 58.6775 77.1968L49.9248 72.3621L44.0257 64.2652C43.5479 63.6093 42.6376 63.3853 41.7484 63.7048C40.2478 64.2438 39.5427 66.0022 40.3986 67.0707Z" fill="#FFB9B9"/>
<path d="M36.2424 123.512C36.2424 123.512 37.6052 121.941 38.4193 122.931C39.2334 123.921 37.4593 124.769 37.4593 124.769L37.356 129.874C37.356 129.874 38.3241 133.778 35.7103 132.27C33.0966 130.761 32.9937 130.581 32.4796 129.677C31.9655 128.774 30.903 125.145 29.9861 123.975C29.0692 122.805 28.2295 120.448 29.318 120.158C30.4064 119.867 35.4799 118.833 35.2271 119.177C34.9743 119.522 33.603 120.637 34.3143 121.446C35.0255 122.255 36.2424 123.512 36.2424 123.512Z" fill="#2F2E41"/>
<path d="M48.4499 52.1499C48.4499 52.1447 48.4504 52.1396 48.4504 52.1343C48.4504 50.9657 48.0722 49.8232 47.3638 48.8515C46.6553 47.8797 45.6483 47.1224 44.4702 46.6751C43.292 46.2279 41.9957 46.1109 40.745 46.3389C39.4943 46.5669 38.3454 47.1297 37.4437 47.956C36.542 48.7824 35.9279 49.8353 35.6792 50.9816C35.4304 52.1278 35.5581 53.3159 36.0461 54.3956C36.5341 55.4754 37.3605 56.3982 38.4208 57.0475C39.481 57.6968 40.7276 58.0434 42.0028 58.0434C42.1526 58.0434 42.7449 59.0714 42.8921 59.0622C42.901 55.9431 45.1025 52.3593 48.4499 52.1499Z" fill="#2F2E41"/>
<path d="M35.1106 51.5231C37.4436 51.5231 39.3348 49.7898 39.3348 47.6516C39.3348 45.5135 37.4436 43.7802 35.1106 43.7802C32.7776 43.7802 30.8863 45.5135 30.8863 47.6516C30.8863 49.7898 32.7776 51.5231 35.1106 51.5231Z" fill="#2F2E41"/>
<path d="M34.9168 41.7871C35.9347 41.7812 36.9206 42.1129 37.6927 42.7209C38.4647 43.3289 38.9708 44.1723 39.1177 45.0955C39.2645 46.0187 39.0421 46.9594 38.4915 47.7441C37.941 48.5288 37.0994 49.1045 36.1219 49.3652C36.7271 49.3643 37.3251 49.2441 37.8752 49.0129C38.4253 48.7816 38.9147 48.4446 39.3102 48.0248C39.7057 47.605 39.9981 47.1121 40.1675 46.5796C40.337 46.0471 40.3795 45.4875 40.2922 44.9386C40.2049 44.3897 39.9899 43.8645 39.6616 43.3985C39.3334 42.9325 38.8997 42.5366 38.3899 42.2377C37.88 41.9388 37.306 41.7438 36.7068 41.6661C36.1076 41.5883 35.4971 41.6296 34.9168 41.7871Z" fill="#2F2E41"/>
<path d="M44.8931 50.9118H48.2773C49.0308 50.9118 49.7534 51.1861 50.2862 51.6744C50.819 52.1627 51.1183 52.8249 51.1183 53.5155V54.5795H44.8931V50.9118Z" fill="#2F2E41"/>
</g>
<defs>
<clipPath id="clip0_1_147">
<rect width="142" height="136" fill="white"/>
</clipPath>
</defs>
</svg>
