<svg data-name="Layer 1" xmlns="http://www.w3.org/2000/svg" width="707.18479" height="539.36713" viewBox="0 0 707.18479 539.36713" xmlns:xlink="http://www.w3.org/1999/xlink"><path d="M423.08824,489.19357a6.99445,6.99445,0,0,0-2.37988-4.8l-11.13037-9.7a6.99616,6.99616,0,0,0-9.38965.17005,5.583,5.583,0,0,0-.48.5L370.6483,508.68356l-3.18017,3.64-48.62012,55.75a7.0184,7.0184,0,0,0,.68018,9.88l11.12011,9.7a7.01274,7.01274,0,0,0,9.87989-.67l26.93994-30.89,24.28027-27.85,29.62988-33.97A6.98184,6.98184,0,0,0,423.08824,489.19357Z" transform="translate(-246.40761 -180.31644)" fill="#6c63ff"/><path d="M599.348,426.3436l-6.75977-13.12a7.0168,7.0168,0,0,0-9.43017-3.01l-55.06983,28.39-34.62011,17.85-19.64991,10.13a6.64165,6.64165,0,0,0-1.41992.98,6.86362,6.86362,0,0,0-2.04,3.11,6.93517,6.93517,0,0,0,.44971,5.34l2.64014,5.13,4.12011,7.99a6.97434,6.97434,0,0,0,4.08985,3.46,7.24455,7.24455,0,0,0,2.1499.33,6.89743,6.89743,0,0,0,3.19043-.78l23.33984-12.03,30.52-15.74005,55.48-28.6a7.01713,7.01713,0,0,0,3.00977-9.43Z" transform="translate(-246.40761 -180.31644)" fill="#6c63ff"/><path d="M541.15807,465.00357l-.29981-.63-11.82031-24.35a7.03366,7.03366,0,0,0-4.0498-3.5,6.959,6.959,0,0,0-5.37989.41l-28.84033,17.48-19.19971,11.64a1.70161,1.70161,0,0,0-.3999.28c-1.1001.99-1.69043,3.53-2.16992,5.61-.17041.72-.31006,1.35-.4502,1.76-.0498.17-.10986.35-.1499.53a6.97153,6.97153,0,0,0,.54,4.81l2.35986,4.71,4.25977,8.48a7.03735,7.03735,0,0,0,6.28027,3.87,6.81082,6.81082,0,0,0,3.08008-.74l26.85987-10.6,26.25976-10.37a7.00862,7.00862,0,0,0,3.12012-9.39Z" transform="translate(-246.40761 -180.31644)" fill="#2f2e41"/><circle cx="199.48267" cy="193.52495" r="53.51916" fill="#6c63ff"/><path d="M447.43834,587.38358a6.96193,6.96193,0,0,0-4.45019-6.23,6.859,6.859,0,0,0-2.52979-.48H425.69811a7.00775,7.00775,0,0,0-7,7v125.01a7.00774,7.00774,0,0,0,7,7h14.76025a7.00775,7.00775,0,0,0,7-7V587.67361A1.36672,1.36672,0,0,0,447.43834,587.38358Z" transform="translate(-246.40761 -180.31644)" fill="#6c63ff"/><path d="M514.4984,643.20358a6.95859,6.95859,0,0,0-.76025-1.35l-25.16016-35.2-20.73-28.99H432.48815l2.5,3.49,4.45019,6.23,13.78955,19.28,29.5503,41.33,7.56982,10.58a7.0022,7.0022,0,0,0,9.76025,1.63l12.00977-8.59A7.00853,7.00853,0,0,0,514.4984,643.20358Zm-72.30029-101.42a7.01105,7.01105,0,0,0-9.77-1.62l-12.00977,8.58a7.01117,7.01117,0,0,0-1.62012,9.77l4.39991,6.15H458.558Z" transform="translate(-246.40761 -180.31644)" fill="#6c63ff"/><path d="M514.72789,643.54361a4.09761,4.09761,0,0,0-.22949-.34,9.64131,9.64131,0,0,0-3.56006-2.96l-13.21045-6.56995c-3.46-1.72-7.17969-1.3-8.28955.94l-6.66015,13.37994-27.39014,55.02c-1.12012,2.24.79,5.46,4.24023,7.18l13.21,6.58a9.71164,9.71164,0,0,0,4.23,1.06c1.85987,0,3.40967-.69,4.06006-2l34.04981-68.4A3.96261,3.96261,0,0,0,514.72789,643.54361Z" transform="translate(-246.40761 -180.31644)" fill="#6c63ff"/><path d="M435.618,472.74356l-2.21973-2.18-1.23-1.23-7.06006-6.95a7.03417,7.03417,0,0,0-4.41015-2c-.18994-.01-.37012-.02-.56006-.02-.41992.00995-1.06006-.05-1.81006-.11005-2.36963-.2-5.32959-.46-6.35986.6l-13.66993,11.82-28.89013,24.97a6.94047,6.94047,0,0,0-1.93994,3.9,6.33965,6.33965,0,0,0-.08008,1.07,6.01183,6.01183,0,0,0,.08008.95,6.94927,6.94927,0,0,0,2.00976,3.99l1.17041,1.12994,18.85987,18.08a7.01533,7.01533,0,0,0,4.96,2.01,6.77088,6.77088,0,0,0,2.37011-.43,7.01767,7.01767,0,0,0,2.58985-1.68l32.87011-39.91,2.14991-2.61,1.24023-1.5A7.00751,7.00751,0,0,0,435.618,472.74356Z" transform="translate(-246.40761 -180.31644)" fill="#2f2e41"/><path d="M438.76584,393.67738l-.05567-2c3.7207-.10352,7.001-.33691,9.46582-2.1377a6.148,6.148,0,0,0,2.38135-4.52832,3.51438,3.51438,0,0,0-1.15283-2.89453c-1.63623-1.38183-4.269-.93457-6.188-.05469l-1.65479.75879,3.17334-23.19043,1.98145.27149-2.69922,19.72656c2.60742-.7666,5.02344-.43652,6.67822.96094a5.471,5.471,0,0,1,1.86035,4.49219,8.13263,8.13263,0,0,1-3.20019,6.07324C446.18869,393.46937,442.073,393.58461,438.76584,393.67738Z" transform="translate(-246.40761 -180.31644)" fill="#2f2e41"/><rect x="210.10823" y="181.28672" width="10.77148" height="2" fill="#2f2e41"/><rect x="176.10823" y="181.28672" width="10.77148" height="2" fill="#2f2e41"/><path d="M440.93453,293.66357c-5.93469-23.78922-28.93929-42.05506-53.5889-41.60062a56.772,56.772,0,0,0-33.558,12.1681A54.24459,54.24459,0,0,0,341.4813,277.6956c-3.715,5.798-6.0477,12.343-7.86895,18.949-3.67993,13.34776-5.41431,28.45183-14.75278,39.35219A41.015,41.015,0,0,1,287.82624,349.958a38.31755,38.31755,0,0,1-30.29531-15.64339c-7.02933-9.37166-10.49-22.33282-6.429-33.64332,1.9928-5.55028,6.27785-10.79316,12.4064-11.71848a14.46162,14.46162,0,0,1,14.31824,6.85351c2.75611,4.836,1.87467,11.28886-1.57825,15.55448-3.63687,4.49288-9.71456,5.73691-15.075,3.93182a13.69789,13.69789,0,0,1-6.37581-4.52334c-1.1987-1.51374-3.32329.60851-2.13691,2.10669a17.34125,17.34125,0,0,0,15.83909,6.05148,16.1891,16.1891,0,0,0,12.90033-10.77958,16.43831,16.43831,0,0,0-2.999-16.615,17.58962,17.58962,0,0,0-16.33936-5.353c-6.3281,1.3398-10.92371,6.5444-13.30872,12.31156a34.35861,34.35861,0,0,0-1.78941,18.84927,44.16269,44.16269,0,0,0,20.21456,29.78114c10.66857,6.55073,23.98479,7.452,35.68872,3.24414a43.7378,43.7378,0,0,0,15.66861-9.6483,46.89407,46.89407,0,0,0,10.793-17.22522c5.2768-13.81628,6.04992-29.27654,13.5162-42.26357a53.188,53.188,0,0,1,28.93074-23.39575,49.736,49.736,0,0,1,36.91132,1.77186,54.31013,54.31013,0,0,1,26.29348,26.10655,48.6146,48.6146,0,0,1,3.05659,8.72877c.46819,1.87674,3.36541,1.09807,2.89771-.77669Z" transform="translate(-246.40761 -180.31644)" fill="#2f2e41"/><path d="M498.77819,486.76358q-.61524-2.37-1.44-4.65a53.42654,53.42654,0,0,0-16.87011-23.66q-1.30518-1.065-2.7002-2.04a53.2349,53.2349,0,0,0-15.11914-7.40588,8.60419,8.60419,0,0,0-.0211-4.71763,9.432,9.432,0,0,0-9.12682-6.62649H440.4605a9.45832,9.45832,0,0,0-9.15314,6.63681,8.58149,8.58149,0,0,0-.02087,4.70347,53.53053,53.53053,0,0,0-37.81836,51.15972V603.836c0,7.07654,2.68994,12.82757,6,12.82757h95c.04,0,27.06982,0,27.10986-.02142,3.26025-.10687,5.89014-5.81525,5.89014-12.80615v0c0-23.93409-5.288-57.57258-15.486-79.22534l-11.514-24.447A53.76772,53.76772,0,0,0,498.77819,486.76358Z" transform="translate(-246.40761 -180.31644)" fill="#2f2e41"/><path d="M391.96813,386.1636c-6.61682,0-12-8.0747-12-18s5.38318-18,12-18,12,8.07471,12,18S398.585,386.1636,391.96813,386.1636Z" transform="translate(-246.40761 -180.31644)" fill="#3f3d56"/><path d="M498.96813,386.1636c-6.61682,0-12-8.0747-12-18s5.38318-18,12-18,12,8.07471,12,18S505.58483,386.1636,498.96813,386.1636Z" transform="translate(-246.40761 -180.31644)" fill="#3f3d56"/><path d="M502.3358,383.34818a1.5013,1.5013,0,0,1-1.42151-1.98,58.49864,58.49864,0,1,0-112.68725-6.5747,1.50007,1.50007,0,0,1-2.93555.61914,61.50092,61.50092,0,1,1,118.46558,6.91455A1.50078,1.50078,0,0,1,502.3358,383.34818Z" transform="translate(-246.40761 -180.31644)" fill="#3f3d56"/><path d="M423.005,332.16569c-2.11925,2.89277-1.07448,6.79121,1.15836,9.28527,2.90549,3.24541,7.53878,3.45016,11.56181,2.84781,4.5143-.67592,9.3026-2.79091,13.87293-1.36561,3.89536,1.2148,6.67418,4.74794,10.7211,5.63537,3.589.787,7.88081-.25477,9.139-4.08015.60459-1.83824-2.29142-2.62611-2.89284-.79752-.81395,2.47478-4.32865,2.42543-6.34144,1.74012-3.2269-1.09867-5.71375-3.77105-8.88541-5.04749-3.73933-1.50491-7.7962-.82548-11.60323.03181-3.5883.808-7.718,2.006-11.29266.49665-2.64516-1.1169-4.74985-4.635-2.84718-7.23211,1.1422-1.5591-1.45984-3.05738-2.59041-1.51415Z" transform="translate(-246.40761 -180.31644)" fill="#2f2e41"/><path d="M566.94844,719.6636h-216a1,1,0,0,1,0-2h216a1,1,0,0,1,0,2Z" transform="translate(-246.40761 -180.31644)" fill="#3f3d56"/><path d="M951.75743,412.75882H714.42736a1.835,1.835,0,1,1,0-3.66992H951.75743a1.835,1.835,0,1,1,0,3.66992Z" transform="translate(-246.40761 -180.31644)" fill="#e6e6e6"/><path d="M850.8673,311.50638H758.5775a19.47209,19.47209,0,0,1-19.45019-19.4502v-92.29a19.472,19.472,0,0,1,19.45019-19.4497h92.2898a19.472,19.472,0,0,1,19.45019,19.4497v92.29A19.47209,19.47209,0,0,1,850.8673,311.50638Z" transform="translate(-246.40761 -180.31644)" fill="#6c63ff"/><path d="M907.60729,354.30618h-92.2898a19.472,19.472,0,0,1-19.45019-19.4497v-92.29a19.47209,19.47209,0,0,1,19.45019-19.4502h92.2898a19.47209,19.47209,0,0,1,19.45019,19.4502v92.29A19.472,19.472,0,0,1,907.60729,354.30618Z" transform="translate(-246.40761 -180.31644)" opacity="0.1" style="isolation:isolate"/><path d="M748.46813,465.6636a1,1,0,0,1-1-1v-18a1,1,0,0,1,2,0v18A1.00005,1.00005,0,0,1,748.46813,465.6636Z" transform="translate(-246.40761 -180.31644)" fill="#ccc"/><path d="M829.96813,465.6636a1,1,0,0,1-1-1v-18a1,1,0,0,1,2,0v18A1.00005,1.00005,0,0,1,829.96813,465.6636Z" transform="translate(-246.40761 -180.31644)" fill="#3f3d56"/><path d="M836.96813,465.6636a1,1,0,0,1-1-1v-18a1,1,0,0,1,2,0v18A1.00005,1.00005,0,0,1,836.96813,465.6636Z" transform="translate(-246.40761 -180.31644)" fill="#3f3d56"/><path d="M763.1483,465.98929a2.31355,2.31355,0,0,1-1.1604-.31494l-11.8938-8.02149c-.02246-.01367-.04467-.02734-.06665-.0415a2.26673,2.26673,0,0,1-1.05932-1.94776,2.29617,2.29617,0,0,1,1.16015-2.00927l11.80054-7.96485a2.31881,2.31881,0,0,1,3.53931,1.97217v16.00391a2.32917,2.32917,0,0,1-2.31983,2.32373Zm-.10083-2.00977a.3061.3061,0,0,0,.2605-.03662.31055.31055,0,0,0,.16016-.27734V447.66165a.32.32,0,0,0-.47974-.27734l-11.801,7.96533c-.19848.11719-.21923.24512-.21923.314a.30948.30948,0,0,0,.15966.27686l.05957.03711Z" transform="translate(-246.40761 -180.31644)" fill="#ccc"/><path d="M916.46813,465.6636a1,1,0,0,1-1-1v-18a1,1,0,0,1,2,0v18A1.00005,1.00005,0,0,1,916.46813,465.6636Z" transform="translate(-246.40761 -180.31644)" fill="#ccc"/><path d="M901.76988,465.98489a2.27232,2.27232,0,0,1-1.14135-.31,2.2964,2.2964,0,0,1-1.1604-2.00928V447.66165a2.31989,2.31989,0,0,1,3.48022-2.00879l11.91919,8.03858a2.26215,2.26215,0,0,1,1.10059,1.97216,2.2955,2.2955,0,0,1-1.126,1.98926l-11.83472,7.98487A2.4586,2.4586,0,0,1,901.76988,465.98489Zm-.30175-2.31933a.31994.31994,0,0,0,.47973.27734l11.846-7.99414a.33732.33732,0,0,0,.17432-.28418v-.001a.30949.30949,0,0,0-.15967-.27685l-11.91968-8.03906a.29746.29746,0,0,0-.2605.03662.31055.31055,0,0,0-.16015.27734Z" transform="translate(-246.40761 -180.31644)" fill="#ccc"/><circle cx="534.06052" cy="230.60742" r="12" fill="#3f3d56"/></svg>